<svg xmlns="http://www.w3.org/2000/svg" xmlns:xlink="http://www.w3.org/1999/xlink" width="12.429" height="12.419" viewBox="0 0 12.429 12.419">
  <defs>
    <clipPath id="clip-path">
      <rect id="Rectangle_4074" data-name="Rectangle 4074" width="12.429" height="12.419" fill="#00ac7e"/>
    </clipPath>
  </defs>
  <g id="Group_10162" data-name="Group 10162" transform="translate(0 0)">
    <g id="Group_10161" data-name="Group 10161" transform="translate(0 0)" clip-path="url(#clip-path)">
      <path id="Path_9346" data-name="Path 9346" d="M6.149,0h.145a.06.06,0,0,0,.1,0h.29c.008.007.015.02.024.021.3.037.59.087.883.143a5.531,5.531,0,0,1,1.6.6A6.09,6.09,0,0,1,11.115,2.4a6.379,6.379,0,0,1,.94,1.7,5.705,5.705,0,0,1,.305,1.266.955.955,0,0,0,.068.351v.291a.082.082,0,0,0,0,.122V6.28a.082.082,0,0,0,0,.122v.315c-.027.007-.022.028-.025.047a7.888,7.888,0,0,1-.173.994,6.209,6.209,0,0,1-.7,1.642,6.706,6.706,0,0,1-.536.76c-.058.072-.089.175-.189.212l.009-.02-.012.02a4.983,4.983,0,0,1-.558.55,6.282,6.282,0,0,1-1.126.769,6.849,6.849,0,0,1-.75.336A6.94,6.94,0,0,1,7.4,12.3a5.332,5.332,0,0,1-.82.107A6.2,6.2,0,0,1,4.964,12.3a6.857,6.857,0,0,1-1.315-.429,5.546,5.546,0,0,1-1.021-.59,5.59,5.59,0,0,1-.692-.564c-.122-.123-.247-.243-.371-.365v-.017c-.082-.1-.168-.2-.245-.3-.172-.238-.338-.48-.507-.72v-.02C.785,9.229.758,9.173.729,9.118A6.117,6.117,0,0,1,.02,6.685,5.836,5.836,0,0,1,.09,5.142a6.521,6.521,0,0,1,.523-1.61A6.254,6.254,0,0,1,2.165,1.5,5.737,5.737,0,0,1,3.385.686a6.532,6.532,0,0,1,.89-.377A4.744,4.744,0,0,1,4.854.162C5.018.131,5.183.1,5.348.067A1.266,1.266,0,0,0,5.712,0h.315a.082.082,0,0,0,.122,0M9.421,2.128,9.4,2.11l-.071-.055L9.3,2.037l-.071-.055L9.2,1.964c-.031-.024-.061-.049-.093-.072a5.236,5.236,0,0,0-.776-.424,2.8,2.8,0,0,0-.679-.237c0-.044-.028-.025-.05-.018a3.343,3.343,0,0,0-.838-.167,5.679,5.679,0,0,0-.97-.009,5.142,5.142,0,0,0-1.11.207A5.219,5.219,0,0,0,2.6,2.475a5.037,5.037,0,0,0-.489.559A4.929,4.929,0,0,0,1.3,4.518a4.64,4.64,0,0,0-.274,1.6,6.836,6.836,0,0,0,.036.82A5.036,5.036,0,0,0,1.529,8.46,5.253,5.253,0,0,0,3.06,10.332a4.761,4.761,0,0,0,1.027.618c.23.1.467.174.7.252a4.786,4.786,0,0,0,.991.193,3.659,3.659,0,0,0,.632.008,5.443,5.443,0,0,0,.919-.111,5.452,5.452,0,0,0,1.081-.376,5.329,5.329,0,0,0,1.856-1.47,5.4,5.4,0,0,0,.864-1.555c.027-.075.094-.16.039-.254l.018-.016c.033-.015.04-.052.047-.077a5.977,5.977,0,0,0,.172-1.093,4.9,4.9,0,0,0-.1-1.283,5.175,5.175,0,0,0-.4-1.2A5.513,5.513,0,0,0,10.222,2.9a4.34,4.34,0,0,0-.8-.775" transform="translate(0 0)" fill="#00ac7e"/>
      <path id="Path_9347" data-name="Path 9347" d="M8.4,0A.082.082,0,0,1,8.28,0Z" transform="translate(-2.253 0)" fill="#00ac7e"/>
      <path id="Path_9348" data-name="Path 9348" d="M17.064,8.383a.082.082,0,0,1,0-.122Z" transform="translate(-4.635 -2.248)" fill="#00ac7e"/>
      <path id="Path_9349" data-name="Path 9349" d="M17.064,8.749a.082.082,0,0,1,0-.122Z" transform="translate(-4.635 -2.347)" fill="#00ac7e"/>
      <path id="Path_9350" data-name="Path 9350" d="M8.744,0a.059.059,0,0,1-.1,0Z" transform="translate(-2.353 0)" fill="#00ac7e"/>
      <path id="Path_9351" data-name="Path 9351" d="M10.493,1.681c-.02,0-.041.008-.05-.018.022-.008.047-.027.05.018" transform="translate(-2.841 -0.45)" fill="#00ac7e"/>
      <path id="Path_9352" data-name="Path 9352" d="M12.667,2.716c-.018.007-.023-.006-.028-.018l.028.018" transform="translate(-3.439 -0.734)" fill="#00ac7e"/>
      <path id="Path_9353" data-name="Path 9353" d="M12.8,2.816c-.017.007-.022-.005-.026-.017l.026.017" transform="translate(-3.475 -0.762)" fill="#00ac7e"/>
      <path id="Path_9354" data-name="Path 9354" d="M12.933,2.916c-.017.007-.022-.005-.026-.017Z" transform="translate(-3.512 -0.789)" fill="#00ac7e"/>
      <path id="Path_9355" data-name="Path 9355" d="M15.35,10.486c0-.016,0-.023.018-.017l-.018.017" transform="translate(-4.176 -2.848)" fill="#00ac7e"/>
      <path id="Path_9356" data-name="Path 9356" d="M1.112,12.776l-.018,0,.017-.018v.021" transform="translate(-0.298 -3.47)" fill="#00ac7e"/>
      <path id="Path_9357" data-name="Path 9357" d="M2.144,14.208l-.017,0,.017-.016v.018" transform="translate(-0.579 -3.861)" fill="#00ac7e"/>
      <path id="Path_9358" data-name="Path 9358" d="M14.849,14.242h0l.012-.02-.009.02" transform="translate(-4.039 -3.869)" fill="#00ac7e"/>
      <path id="Path_9359" data-name="Path 9359" d="M4.6,6.981a.5.5,0,0,1,.4.167c.456.467.915.932,1.372,1.4.143.146.14.146.295,0,.384-.371.775-.734,1.159-1.106.306-.3.617-.585.926-.879.29-.277.592-.542.872-.829a.578.578,0,0,1,.6-.189.463.463,0,0,1,.338.374.511.511,0,0,1-.2.519c-.04.033-.08.066-.117.1-.4.379-.787.761-1.187,1.135-.3.277-.59.556-.884.836-.32.3-.643.6-.962.911-.121.116-.243.232-.365.347a.5.5,0,0,1-.726-.009c-.371-.408-.777-.784-1.155-1.187-.223-.238-.456-.466-.683-.7a.517.517,0,0,1-.01-.767.415.415,0,0,1,.322-.12" transform="translate(-1.118 -1.501)" fill="#00ac7e"/>
    </g>
  </g>
</svg>
