<svg xmlns="http://www.w3.org/2000/svg" xmlns:xlink="http://www.w3.org/1999/xlink" width="23.243" height="30.364" viewBox="0 0 23.243 30.364">
  <defs>
    <clipPath id="clip-path">
      <rect id="Rectangle_4052" data-name="Rectangle 4052" width="23.243" height="30.364" transform="translate(-2 -2)" fill="none"/>
    </clipPath>
  </defs>
  <g id="Group_9978" data-name="Group 9978" transform="translate(2 2)">
    <g id="Group_9977" data-name="Group 9977" transform="translate(0 0)" clip-path="url(#clip-path)">
      <path id="Path_9174" data-name="Path 9174" d="M3.21,21.3c0-1.419,0-2.838,0-4.256a.534.534,0,0,0-.182-.432A9.472,9.472,0,0,1,.045,10.5,9.612,9.612,0,0,1,19.018,7.621a9.364,9.364,0,0,1-2.84,9.025.485.485,0,0,0-.148.39q.005,4.2,0,8.4a1.293,1.293,0,0,1-.045.467.722.722,0,0,1-1.106.318c-.937-.577-1.868-1.162-2.8-1.744-.738-.458-1.481-.91-2.21-1.382a.38.38,0,0,0-.485,0c-1.634,1.029-3.276,2.047-4.916,3.068-.055.034-.109.068-.166.1a.708.708,0,0,1-1.086-.619c-.012-.705,0-1.409,0-2.114V21.3m6.409-3.49A8.185,8.185,0,1,0,1.444,9.86a8.194,8.194,0,0,0,8.176,7.953M4.656,24.345l.261-.164c1.389-.869,2.781-1.728,4.161-2.609a.9.9,0,0,1,1.078-.007c1.389.882,2.786,1.75,4.183,2.621.073.045.133.131.242.105v-6.4a9.726,9.726,0,0,1-9.925,0Z" transform="translate(0 0)" fill="#0a0a0a" stroke="#000" stroke-width="0.4"/>
      <path id="Path_9175" data-name="Path 9175" d="M5.133,13.554c.133-.779.279-1.635.427-2.492.041-.247.084-.492.133-.736a.339.339,0,0,0-.128-.339c-.748-.721-1.485-1.452-2.236-2.17a.776.776,0,0,1-.276-.865.8.8,0,0,1,.762-.5c1.045-.139,2.087-.3,3.132-.444.14-.02.17-.124.219-.222.474-.961.945-1.921,1.424-2.878A.713.713,0,0,1,9.7,2.6a1,1,0,0,1,.271.38c.449.91.9,1.819,1.342,2.735a.472.472,0,0,0,.427.309c1.028.129,2.051.288,3.076.438a.726.726,0,0,1,.65.49.735.735,0,0,1-.223.806c-.76.734-1.512,1.477-2.275,2.208a.408.408,0,0,0-.132.415c.184,1.019.359,2.039.535,3.059a.758.758,0,0,1-.28.841.786.786,0,0,1-.885-.021c-.9-.485-1.816-.952-2.718-1.438a.422.422,0,0,0-.457.008q-1.4.752-2.82,1.481a.721.721,0,0,1-1.073-.76M9.258,4.8c-.325.665-.648,1.265-.914,1.891a1.1,1.1,0,0,1-1.014.714c-.671.066-1.338.188-2,.285.541.555,1.066,1.1,1.6,1.638a.813.813,0,0,1,.252.753c-.04.256-.093.509-.137.763-.084.5-.166.994-.257,1.529.707-.374,1.376-.724,2.04-1.084a.8.8,0,0,1,.84,0c.37.206.748.4,1.123.6l.921.484c-.131-.788-.249-1.525-.381-2.261a.8.8,0,0,1,.241-.781c.308-.294.611-.594.911-.9.239-.24.472-.484.718-.74-.763-.113-1.509-.234-2.257-.332a.837.837,0,0,1-.69-.522c-.321-.664-.651-1.322-1-2.038" transform="translate(0.364 0.296)" fill="#e21a22"/>
    </g>
  </g>
</svg>
