<svg id="Group_9570" data-name="Group 9570" xmlns="http://www.w3.org/2000/svg" xmlns:xlink="http://www.w3.org/1999/xlink" width="30" height="28.167" viewBox="0 0 30 28.167">
  <defs>
    <clipPath id="clip-path">
      <rect id="Rectangle_3565" data-name="Rectangle 3565" width="30" height="28.167" fill="#e21a22"/>
    </clipPath>
  </defs>
  <g id="Group_9569" data-name="Group 9569" clip-path="url(#clip-path)">
    <path id="Path_4791" data-name="Path 4791" d="M0,16.3c.247-.326.453-.383.755-.215A.5.5,0,0,1,1,16.58C1,18.1,1,19.626,1,21.15a1.542,1.542,0,0,0,.165.843,1.2,1.2,0,0,0,1.123.617q7.871-.021,15.744-.008,2.583,0,5.166,0a1.185,1.185,0,0,0,1.2-1.036,3.455,3.455,0,0,0,.048-.759q0-6.445,0-12.89c0-.233-.067-.277-.286-.277q-11.435.009-22.872,0c-.243,0-.293.062-.292.3C1,9.284,1,10.633,1,11.983a.617.617,0,0,1-.366.63C.4,12.688.209,12.6,0,12.327V3.586c.05-.017.042-.062.051-.1a2.1,2.1,0,0,1,1.67-1.494,9.252,9.252,0,0,1,1.33-.043c.377-.009.38,0,.377-.37A1.608,1.608,0,0,1,3.937.365,1.511,1.511,0,0,1,5.182.008,1.392,1.392,0,0,1,6.21.557a1.7,1.7,0,0,1,.342,1.187c0,.155.03.211.2.207.5-.011,1.009,0,1.514,0,.375,0,.379,0,.375-.37a1.609,1.609,0,0,1,.493-1.2A1.5,1.5,0,0,1,10.4.009,1.37,1.37,0,0,1,11.426.56a1.716,1.716,0,0,1,.342,1.183c-.006.157.032.211.2.207.488-.011.977,0,1.465,0,.425,0,.418,0,.427-.42a1.582,1.582,0,0,1,.684-1.3A1.568,1.568,0,0,1,15.617.012a1.319,1.319,0,0,1,1.025.551,1.593,1.593,0,0,1,.34,1.138c-.015.216.058.256.258.25.5-.015,1.01,0,1.514,0,.318,0,.323,0,.318-.329A1.605,1.605,0,0,1,19.8.2,1.58,1.58,0,0,1,20.841.012a1.339,1.339,0,0,1,1.01.536A1.7,1.7,0,0,1,22.2,1.757c-.008.151.031.192.187.194.385.007.768,0,1.156.033a2.184,2.184,0,0,1,1.892,2.11q-.017,8.467,0,16.933a3.621,3.621,0,0,1-.106.916A2.145,2.145,0,0,1,23.251,23.6c-.514,0-1.026,0-1.539,0Q11.855,23.6,2,23.589a1.89,1.89,0,0,1-1.613-.955A5.086,5.086,0,0,1,0,21.715ZM12.7,6.626H13.7q5.226,0,10.452.007c.249,0,.294-.07.29-.3-.016-.752,0-1.505-.007-2.258a1.175,1.175,0,0,0-.939-1.089,9.8,9.8,0,0,0-1.155-.047c-.144-.01-.137.07-.136.168a2.5,2.5,0,0,1-.086.847,1.557,1.557,0,0,1-2.992-.092,2.837,2.837,0,0,1-.04-.754c0-.127-.029-.17-.163-.169-.6.008-1.191.007-1.787,0-.124,0-.149.041-.148.155a3.843,3.843,0,0,1-.04.685,1.55,1.55,0,0,1-2.84.535,1.968,1.968,0,0,1-.244-1.195c.009-.136-.026-.184-.172-.181-.58.009-1.159.011-1.738,0-.17,0-.188.063-.179.2a2.184,2.184,0,0,1-.065.779,1.56,1.56,0,0,1-3.017-.083A3.168,3.168,0,0,1,8.647,3.1c0-.134-.042-.163-.168-.162-.588.006-1.175.007-1.763,0-.135,0-.168.041-.162.168a2.494,2.494,0,0,1-.068.827,1.634,1.634,0,0,1-1.349,1.1A1.562,1.562,0,0,1,3.53,4.023a2.4,2.4,0,0,1-.1-.915c0-.074.039-.175-.1-.169A7.891,7.891,0,0,0,1.8,3a1.147,1.147,0,0,0-.811.981c.033.793.018,1.589,0,2.383,0,.217.048.27.267.269Q6.98,6.619,12.7,6.626M4.453,2.517h.006c0,.33,0,.66,0,.991a.505.505,0,0,0,.468.523.532.532,0,0,0,.588-.421,10.317,10.317,0,0,0,.031-2.064C5.526,1.1,5.276.959,4.832,1c-.228.022-.378.276-.379.65,0,.289,0,.577,0,.866m10.427.022h.011c0,.33,0,.661,0,.991a.479.479,0,0,0,.463.5.555.555,0,0,0,.59-.406,9.661,9.661,0,0,0,.029-2.07c-.035-.541-.3-.573-.706-.553-.229.011-.386.275-.388.645,0,.3,0,.6,0,.894m-5.214,0h.01c0,.33,0,.661,0,.991a.5.5,0,0,0,.485.507.542.542,0,0,0,.572-.439A11.273,11.273,0,0,0,10.766,1.6c-.015-.439-.183-.632-.687-.6-.251.015-.41.258-.412.645,0,.3,0,.595,0,.891M20.1,2.493h0c0,.356,0,.711,0,1.066a.459.459,0,0,0,.217.383.587.587,0,0,0,.883-.582c0-.563,0-1.125,0-1.687a.843.843,0,0,0-.128-.48.561.561,0,0,0-.645-.179.448.448,0,0,0-.331.462V2.493" transform="translate(2.282 2.283)" fill="#e21a22"/>
    <path id="Path_4792" data-name="Path 4792" d="M0,12.4c.17-.183.333-.346.63-.254a.484.484,0,0,1,.357.437.451.451,0,0,1-.275.466.464.464,0,0,1-.522-.042A1.587,1.587,0,0,1,0,12.8v-.4" transform="translate(2.282 3.995)" fill="#e21a22"/>
    <g id="Rectangle_3566" data-name="Rectangle 3566" transform="translate(5.706 12.553)" fill="#e21a22" stroke="#ea0000" stroke-width="1">
      <rect width="4.565" height="4.565" stroke="none"/>
      <rect x="0.5" y="0.5" width="3.565" height="3.565" fill="none"/>
    </g>
    <g id="Rectangle_3567" data-name="Rectangle 3567" transform="translate(12.553 12.553)" fill="#e21a22" stroke="#ea0000" stroke-width="1">
      <rect width="4.565" height="4.565" stroke="none"/>
      <rect x="0.5" y="0.5" width="3.565" height="3.565" fill="none"/>
    </g>
    <g id="Rectangle_3568" data-name="Rectangle 3568" transform="translate(19.4 12.553)" fill="#e21a22" stroke="#ea0000" stroke-width="1">
      <rect width="4.565" height="4.565" stroke="none"/>
      <rect x="0.5" y="0.5" width="3.565" height="3.565" fill="none"/>
    </g>
  </g>
</svg>
