<svg xmlns="http://www.w3.org/2000/svg" xmlns:xlink="http://www.w3.org/1999/xlink" width="25.504" height="23.158" viewBox="0 0 25.504 23.158">
  <defs>
    <clipPath id="clip-path">
      <rect id="Rectangle_4055" data-name="Rectangle 4055" width="25.504" height="23.158" fill="none"/>
    </clipPath>
  </defs>
  <g id="Group_9984" data-name="Group 9984" transform="translate(0 0)">
    <g id="Group_9983" data-name="Group 9983" transform="translate(0 0)" clip-path="url(#clip-path)">
      <path id="Path_9188" data-name="Path 9188" d="M14.546,5.816A5.782,5.782,0,1,1,9.077.006a5.744,5.744,0,0,1,5.469,5.81M8.719,9.227a3.431,3.431,0,0,0,3.494-3.874A3.4,3.4,0,0,0,9.131,2.338a3.454,3.454,0,1,0-.411,6.889" transform="translate(0.491 0)" fill="#040505"/>
      <path id="Path_9189" data-name="Path 9189" d="M8.762,11.909c1.34,0,2.433.008,3.526,0a6.7,6.7,0,0,1,2.985.588,5.222,5.222,0,0,1,1.618,1.19,8.164,8.164,0,0,1,.724.9,5.363,5.363,0,0,1,.833,2.167,18.992,18.992,0,0,1,.1,3.285,1.239,1.239,0,0,1-1.106,1.16,1.087,1.087,0,0,1-1.2-1.062c-.031-.694.014-1.391-.015-2.087a4.253,4.253,0,0,0-.328-1.806,3.391,3.391,0,0,0-2.569-1.932,4.638,4.638,0,0,0-.768-.072q-3.306-.01-6.612,0a3.684,3.684,0,0,0-2.077.6A3.5,3.5,0,0,0,2.4,17.02a3.021,3.021,0,0,0-.049.744c0,.731,0,1.464,0,2.195a1.163,1.163,0,0,1-.806,1.154A1.131,1.131,0,0,1,.026,20.021c-.008-.921-.057-1.845,0-2.763a5.51,5.51,0,0,1,1.153-3.04,5.8,5.8,0,0,1,1.983-1.673,5.454,5.454,0,0,1,1.766-.555c1.355-.172,2.718-.031,3.83-.08" transform="translate(0 1.956)" fill="#040505"/>
      <path id="Path_9190" data-name="Path 9190" d="M13.939,10.226A1.117,1.117,0,0,1,14.845,9.1,3.43,3.43,0,0,0,17.129,7.1,3.044,3.044,0,0,0,17.4,5.694a3.494,3.494,0,0,0-.488-1.7,3.258,3.258,0,0,0-1.023-1.088,4.71,4.71,0,0,0-1.146-.516,1.068,1.068,0,0,1-.794-.892A1.14,1.14,0,0,1,14.52.251,1.288,1.288,0,0,1,15.6.229a5.592,5.592,0,0,1,2.62,1.631,5.409,5.409,0,0,1,1.4,2.872,5.767,5.767,0,0,1-.368,3.283A6.477,6.477,0,0,1,18.16,9.7a5.889,5.889,0,0,1-1.876,1.37,1.888,1.888,0,0,1-1.682.233,1.084,1.084,0,0,1-.663-1.079" transform="translate(2.289 0.019)" fill="#e21a22"/>
      <path id="Path_9191" data-name="Path 9191" d="M20.391,19.121a12.576,12.576,0,0,0-.059-1.885,3.379,3.379,0,0,0-.934-1.919,4.138,4.138,0,0,0-1.749-1,1.179,1.179,0,0,1-.536-1.771,1.157,1.157,0,0,1,1.429-.4,5.712,5.712,0,0,1,3.867,3.757,6.038,6.038,0,0,1,.3,1.877c.014.7.022,1.391,0,2.085a1.28,1.28,0,0,1-.768,1.205,1.143,1.143,0,0,1-1.55-.985c.009-.37,0-.741,0-.973" transform="translate(2.779 1.983)" fill="#e21a22"/>
    </g>
  </g>
</svg>
