<svg xmlns="http://www.w3.org/2000/svg" xmlns:xlink="http://www.w3.org/1999/xlink" width="17.996" height="18" viewBox="0 0 17.996 18">
  <defs>
    <clipPath id="clip-path">
      <rect id="Rectangle_4076" data-name="Rectangle 4076" width="17.996" height="18" fill="#e21922"/>
    </clipPath>
  </defs>
  <g id="Cost" transform="translate(0 0)">
    <g id="Group_10168" data-name="Group 10168" transform="translate(0 0)" clip-path="url(#clip-path)">
      <path id="Path_9363" data-name="Path 9363" d="M13.427,18h-1.02c-.007-.027-.027-.033-.052-.035A4.994,4.994,0,0,1,9.9,16.942a.465.465,0,0,0-.3-.1c-2.975,0-5.951,0-8.927.007A.637.637,0,0,1,0,16.454V.392A.636.636,0,0,1,.668,0Q6.2.011,11.735,0a.532.532,0,0,1,.6.6V6.773c0,.352,0,.7,0,1.054,0,.077,0,.126.108.113A4.761,4.761,0,0,1,14,8.021a5.041,5.041,0,0,1,.084,9.845c-.216.052-.436.09-.654.136M8.789,15.786c-.044-.069-.075-.115-.105-.163a4.787,4.787,0,0,1-.724-3.386,4.922,4.922,0,0,1,3.181-3.993.188.188,0,0,0,.144-.21q-.007-3.4,0-6.8c0-.149-.038-.178-.182-.177q-4.937.007-9.875,0c-.148,0-.179.037-.179.181q.007,7.187,0,14.374c0,.145.033.181.18.18q3.689-.007,7.38,0h.178m8.117-2.847a3.971,3.971,0,1,0-3.969,4.006,3.99,3.99,0,0,0,3.969-4.006" transform="translate(0 0)" fill="#e21922"/>
      <path id="Path_9364" data-name="Path 9364" d="M6.5,2.584H9.8a.524.524,0,0,1,.579.571q0,1.362,0,2.723a.523.523,0,0,1-.563.571H3.141A.52.52,0,0,1,2.579,5.9q0-1.379,0-2.759a.519.519,0,0,1,.563-.553H6.5M6.48,3.638c-.9,0-1.8,0-2.706,0-.114,0-.145.028-.144.144q.011.738,0,1.476c0,.115.03.144.144.144q2.706-.007,5.411,0c.114,0,.145-.028.144-.144-.007-.486-.009-.973,0-1.458,0-.132-.031-.163-.162-.162-.9.006-1.792,0-2.688,0" transform="translate(-0.294 -0.295)" fill="#e21922"/>
      <path id="Path_9365" data-name="Path 9365" d="M14.4,11.31a.51.51,0,0,1,.525.442.155.155,0,0,0,.126.151,1.22,1.22,0,0,1,.474.291.528.528,0,0,1-.681.805.582.582,0,0,0-.54-.11.3.3,0,0,0-.238.268c-.026.128.074.174.159.222a4.846,4.846,0,0,0,.721.31,1.394,1.394,0,0,1,1.02,1.321,1.546,1.546,0,0,1-.914,1.455.17.17,0,0,0-.121.178.508.508,0,0,1-.484.5.514.514,0,0,1-.559-.442c-.012-.113-.051-.141-.152-.164a1.766,1.766,0,0,1-.625-.3.526.526,0,0,1-.128-.719.513.513,0,0,1,.724-.151,1.152,1.152,0,0,0,.734.172.464.464,0,0,0,.421-.293.356.356,0,0,0-.2-.528c-.264-.109-.537-.195-.791-.327a1.471,1.471,0,0,1-.76-.692,1.363,1.363,0,0,1,.642-1.732.192.192,0,0,0,.138-.188.507.507,0,0,1,.516-.47" transform="translate(-1.47 -1.29)" fill="#e21922"/>
    </g>
  </g>
</svg>
