<svg xmlns="http://www.w3.org/2000/svg" xmlns:xlink="http://www.w3.org/1999/xlink" width="26.371" height="26.364" viewBox="0 0 26.371 26.364">
  <defs>
    <clipPath id="clip-path">
      <rect id="Rectangle_4048" data-name="Rectangle 4048" width="26.371" height="26.364" transform="translate(-1 -1)" fill="none"/>
    </clipPath>
  </defs>
  <g id="Group_9970" data-name="Group 9970" transform="translate(1 1)">
    <g id="Group_9969" data-name="Group 9969" clip-path="url(#clip-path)">
      <path id="Path_9161" data-name="Path 9161" d="M24.371,12.194a12.193,12.193,0,0,1-8.618,11.64,11.919,11.919,0,0,1-5.212.409A12.171,12.171,0,0,1,.391,15.21,11.03,11.03,0,0,1,0,12.172,12.063,12.063,0,0,1,4.608,2.659,11.959,11.959,0,0,1,12.093,0a.858.858,0,1,1,.045,1.711,10.425,10.425,0,0,0-4.377.98,11.076,11.076,0,0,0-1.137.62c-.108.066-.121.116-.065.226.481.949.953,1.9,1.436,2.853a1.341,1.341,0,0,0,.892.7c.6.159,1.188.324,1.786.473a3.166,3.166,0,0,1,2.47,2.511c.261,1.1.532,2.191.8,3.286a1.344,1.344,0,0,0,.539.823,3.44,3.44,0,0,0,1,.584,1.391,1.391,0,0,0,1.6-.693c.2-.362.39-.731.56-1.107a3.3,3.3,0,0,1,2.47-1.952c.74-.159,1.47-.362,2.207-.537.167-.039.2-.112.164-.275a12.652,12.652,0,0,0-.685-2.216.841.841,0,0,1,.335-1.062.857.857,0,0,1,1.084.164,1,1,0,0,1,.166.268,12.1,12.1,0,0,1,.993,4.838M1.909,13.864c-.015-.025-.034-.037-.054-.006l.029.03a7.126,7.126,0,0,0,.534,2.036,10.41,10.41,0,0,0,7.6,6.507c.223.054.316.014.374-.222.15-.606.343-1.2.5-1.806a2.368,2.368,0,0,0-.44-2.125c-.439-.564-.92-1.1-1.4-1.631a2.321,2.321,0,0,0-1.221-.7,4.986,4.986,0,0,0-1.267-.073,4.557,4.557,0,0,1-2.6-.747c-.674-.435-1.365-.842-2.049-1.262m3.2-9.4a10.517,10.517,0,0,0-3.379,7.067.274.274,0,0,0,.167.288c1.036.641,2.066,1.29,3.1,1.934a2.538,2.538,0,0,0,.9.354,8.255,8.255,0,0,0,1.3.042,4.264,4.264,0,0,1,3.247,1.479c.416.47.829.944,1.224,1.431a4.162,4.162,0,0,1,.851,3.85c-.148.575-.319,1.145-.481,1.725a7.65,7.65,0,0,0,1.817-.116,10.331,10.331,0,0,0,6.616-3.945,10.239,10.239,0,0,0,2.185-6.2c0-.188-.044-.222-.22-.176q-1.084.286-2.175.551a1.459,1.459,0,0,0-1.012.817c-.222.451-.439.9-.68,1.344a3.108,3.108,0,0,1-3.157,1.585,4.24,4.24,0,0,1-1.912-.907,3.005,3.005,0,0,1-1.2-1.753q-.432-1.716-.844-3.437a1.439,1.439,0,0,0-1.108-1.149c-.571-.149-1.136-.324-1.71-.455A3.207,3.207,0,0,1,6.364,6.98c-.406-.832-.825-1.657-1.252-2.513" fill="#080909"/>
      <path id="Path_9162" data-name="Path 9162" d="M17.865,0a3.889,3.889,0,0,1,3.877,4.16A4.266,4.266,0,0,1,21.149,5.9a16.457,16.457,0,0,1-2.7,3.493.79.79,0,0,1-1.127.052A13.977,13.977,0,0,1,14.2,5.111,3.827,3.827,0,0,1,17.049.082,5.188,5.188,0,0,1,17.865,0m2.181,3.89a1.4,1.4,0,0,0,0-.159c-.01-.079-.026-.157-.042-.234a2.094,2.094,0,0,0-1.559-1.7,2.066,2.066,0,0,0-2.249.685,1.956,1.956,0,0,0-.321,2.242,12.588,12.588,0,0,0,1.89,2.705c.093.11.133.053.2-.02a13.794,13.794,0,0,0,1.748-2.422,2.393,2.393,0,0,0,.338-1.1" fill="#e21a22"/>
      <path id="Path_9163" data-name="Path 9163" d="M1.884,13.889l-.029-.03c.02-.031.039-.019.055.006l-.026.024" fill="#fcfcfc"/>
      <path id="Path_9164" data-name="Path 9164" d="M20.046,3.89a2.393,2.393,0,0,1-.338,1.1A13.794,13.794,0,0,1,17.96,7.411c-.063.073-.1.13-.2.02a12.588,12.588,0,0,1-1.89-2.705,1.956,1.956,0,0,1,.321-2.242A2.066,2.066,0,0,1,18.444,1.8,2.094,2.094,0,0,1,20,3.5c.016.077.032.155.042.234a1.4,1.4,0,0,1,0,.159" fill="#fcfcfc"/>
    </g>
  </g>
</svg>
