<svg xmlns="http://www.w3.org/2000/svg" xmlns:xlink="http://www.w3.org/1999/xlink" width="23.431" height="23.437" viewBox="0 0 23.431 23.437">
  <defs>
    <clipPath id="clip-path">
      <rect id="Rectangle_4051" data-name="Rectangle 4051" width="23.431" height="23.437" transform="translate(0 0)" fill="none"/>
    </clipPath>
  </defs>
  <g id="Group_9976" data-name="Group 9976" transform="translate(0 0)">
    <g id="Group_9975" data-name="Group 9975" clip-path="url(#clip-path)">
      <path id="Path_9172" data-name="Path 9172" d="M12.586,23.437H10.755c-.012-.05-.053-.043-.09-.046a11.406,11.406,0,0,1-2.016-.36,11.756,11.756,0,0,1-8.525-9.58A3.142,3.142,0,0,0,0,12.681V10.759c.05-.012.044-.053.046-.09A8.12,8.12,0,0,1,.2,9.539a11.52,11.52,0,0,1,4.289-7.03,11.424,11.424,0,0,1,8.844-2.4A11,11,0,0,1,19.365,2.86a11.421,11.421,0,0,1,3.812,11.261,11.213,11.213,0,0,1-4.249,6.827A11.487,11.487,0,0,1,13.47,23.31a5.6,5.6,0,0,0-.884.127M11.712,1.468A10.252,10.252,0,1,0,21.968,11.727,10.282,10.282,0,0,0,11.712,1.468" fill="#080909"/>
      <path id="Path_9173" data-name="Path 9173" d="M10.984,17.293c0-.485,0-.48-.465-.608a3.827,3.827,0,0,1-1.428-.735A.736.736,0,0,1,8.94,14.9a.725.725,0,0,1,1.036-.12,2.843,2.843,0,0,0,2.867.373,1.764,1.764,0,0,0,.778-.539,1.035,1.035,0,0,0-.146-1.549,2.947,2.947,0,0,0-1.913-.615,3.865,3.865,0,0,1-2.829-1.228,2.494,2.494,0,0,1,.273-3.666,4.017,4.017,0,0,1,1.785-.861c.147-.03.207-.079.2-.234-.013-.2-.007-.412,0-.617a.732.732,0,0,1,1.463.007c0,.206.009.412,0,.617-.008.139.031.2.178.226a3.8,3.8,0,0,1,1.7.782.737.737,0,1,1-.887,1.175,2.824,2.824,0,0,0-3.171-.2,1.4,1.4,0,0,0-.574.541,1.034,1.034,0,0,0,.267,1.384,2.949,2.949,0,0,0,1.913.616A3.864,3.864,0,0,1,14.7,12.219a2.5,2.5,0,0,1-.274,3.667,4,4,0,0,1-1.785.86c-.147.03-.206.079-.2.234.014.2.007.412,0,.618a.732.732,0,0,1-1.464-.008c0-.1,0-.2,0-.3" fill="#e21a22"/>
    </g>
  </g>
</svg>
