<svg id="dashboard" xmlns="http://www.w3.org/2000/svg" width="14" height="14" viewBox="0 0 14 14">
  <path id="Path_4582" data-name="Path 4582" d="M5.4,4.667H1.021A1.022,1.022,0,0,1,0,3.646V1.021A1.022,1.022,0,0,1,1.021,0H5.4A1.022,1.022,0,0,1,6.417,1.021V3.646A1.022,1.022,0,0,1,5.4,4.667ZM1.021.875a.146.146,0,0,0-.146.146V3.646a.146.146,0,0,0,.146.146H5.4a.146.146,0,0,0,.146-.146V1.021A.146.146,0,0,0,5.4.875Zm0,0" fill="#fff"/>
  <path id="Path_4583" data-name="Path 4583" d="M5.4,221.5H1.021A1.022,1.022,0,0,1,0,220.478v-6.125a1.022,1.022,0,0,1,1.021-1.021H5.4a1.022,1.022,0,0,1,1.021,1.021v6.125A1.022,1.022,0,0,1,5.4,221.5Zm-4.375-7.292a.146.146,0,0,0-.146.146v6.125a.146.146,0,0,0,.146.146H5.4a.146.146,0,0,0,.146-.146v-6.125a.146.146,0,0,0-.146-.146Zm0,0" transform="translate(0 -207.499)" fill="#fff"/>
  <path id="Path_4584" data-name="Path 4584" d="M282.728,346h-4.375a1.022,1.022,0,0,1-1.021-1.021v-2.625a1.022,1.022,0,0,1,1.021-1.021h4.375a1.022,1.022,0,0,1,1.021,1.021v2.625A1.022,1.022,0,0,1,282.728,346Zm-4.375-3.792a.146.146,0,0,0-.146.146v2.625a.146.146,0,0,0,.146.146h4.375a.146.146,0,0,0,.146-.146v-2.625a.146.146,0,0,0-.146-.146Zm0,0" transform="translate(-269.749 -331.999)" fill="#fff"/>
  <path id="Path_4585" data-name="Path 4585" d="M282.728,8.167h-4.375a1.022,1.022,0,0,1-1.021-1.021V1.021A1.022,1.022,0,0,1,278.353,0h4.375a1.022,1.022,0,0,1,1.021,1.021V7.146A1.022,1.022,0,0,1,282.728,8.167ZM278.353.875a.146.146,0,0,0-.146.146V7.146a.146.146,0,0,0,.146.146h4.375a.146.146,0,0,0,.146-.146V1.021a.146.146,0,0,0-.146-.146Zm0,0" transform="translate(-269.749)" fill="#fff"/>
</svg>
