<svg xmlns="http://www.w3.org/2000/svg" xmlns:xlink="http://www.w3.org/1999/xlink" width="24.012" height="23.069" viewBox="0 0 24.012 23.069">
  <defs>
    <clipPath id="clip-path">
      <rect id="Rectangle_4054" data-name="Rectangle 4054" width="24.012" height="23.069" fill="none"/>
    </clipPath>
  </defs>
  <g id="Group_9982" data-name="Group 9982" transform="translate(0 0)">
    <g id="Group_9981" data-name="Group 9981" transform="translate(0 0)" clip-path="url(#clip-path)">
      <path id="Path_9182" data-name="Path 9182" d="M12.01,8.024q-4.912,0-9.824,0c-.195,0-.249.04-.249.244q.011,5.606,0,11.213c0,.448.169.659.647.647.926-.022,1.854-.017,2.78,0,.648.01.981.307,1.045,1.022a.951.951,0,0,1-.842.886c-1.038.015-2.077,0-3.114.015A2.385,2.385,0,0,1,.277,20.785a1.878,1.878,0,0,1-.257-1.2,2.53,2.53,0,0,0-.008-.263C.011,13.777.019,8.235,0,2.692A2.656,2.656,0,0,1,.507.954,2.262,2.262,0,0,1,2.193.03C2.831-.015,3.467,0,4.1,0Q12.718,0,21.332,0a2.916,2.916,0,0,1,.885.117c.112.035.182-.086.286-.01A3.331,3.331,0,0,1,23.831,1.5a3.618,3.618,0,0,1,.18,1.321q0,8.314,0,16.628A2.468,2.468,0,0,1,23.1,21.5a2.193,2.193,0,0,1-1.29.533c-.429.017-.859.008-1.287-.015-.234-.012-.562-.376-.654-.674a.989.989,0,0,1,.968-1.23c.214.021.431,0,.647,0a.525.525,0,0,0,.594-.6q0-5.643.005-11.285c0-.19-.059-.216-.228-.216q-4.923.007-9.847,0m0-1.94q4.923,0,9.847,0c.171,0,.228-.03.226-.217-.011-1.094-.023-2.189,0-3.282a.6.6,0,0,0-.681-.653Q12.3,1.949,3.2,1.942c-.279,0-.559.01-.837.008a.353.353,0,0,0-.251.1c-.2.168-.175.379-.172.61q.021,1.593,0,3.187c0,.207.059.241.251.241q4.912-.009,9.824,0" transform="translate(0 0)" fill="#040504"/>
      <path id="Path_9183" data-name="Path 9183" d="M9.769,16.416a2.142,2.142,0,0,1,1.009.319c1.759.722,3.51,1.46,5.263,2.194.67.28,1.334.576,2.011.84.222.087.432.195.648.291a.974.974,0,0,1,.256,1.54,1.523,1.523,0,0,1-1,.425,3.314,3.314,0,0,0-1.5.519c-.136.092-.013.125.023.162.312.319.63.634.946.95.553.553,1.1,1.115,1.663,1.656a.967.967,0,1,1-1.447,1.283c-.84-.819-1.667-1.652-2.488-2.489-.157-.161-.222-.121-.293.053a4.937,4.937,0,0,0-.435,1.53,1.237,1.237,0,0,1-1.058,1.169.929.929,0,0,1-.91-.605q-.379-.884-.753-1.769-.584-1.388-1.166-2.777-.595-1.423-1.185-2.848c-.154-.372-.314-.741-.465-1.115a1,1,0,0,1,.386-1.231.83.83,0,0,1,.5-.1m3.453,6.707a5.564,5.564,0,0,1,2.31-2.307c-.329-.176-.663-.257-.976-.4-.908-.413-1.835-.787-2.757-1.171-.052-.021-.111-.1-.171-.04s.021.128.044.183c.374.863.715,1.737,1.1,2.594a12.211,12.211,0,0,1,.447,1.14" transform="translate(-2.079 -3.873)" fill="#e21a22"/>
      <path id="Path_9184" data-name="Path 9184" d="M8.5,5.848c-1.013,0-2.026-.015-3.039.007a.913.913,0,0,1-.847-.806.856.856,0,0,1,.821-.923q3.039-.008,6.078,0a.9.9,0,0,1,.864.656.866.866,0,0,1-.608,1.037.684.684,0,0,1-.254.029q-1.507,0-3.015,0" transform="translate(-1.09 -0.972)" fill="#040504"/>
      <path id="Path_9185" data-name="Path 9185" d="M21.829,5.881a.93.93,0,0,1-.9-.906.918.918,0,0,1,.873-.913.876.876,0,0,1,.948.824.876.876,0,0,1-.918.995" transform="translate(-4.938 -0.958)" fill="#040504"/>
      <path id="Path_9186" data-name="Path 9186" d="M26.2,4.974a.882.882,0,0,1-.959.909.951.951,0,0,1-.859-.906.939.939,0,0,1,.918-.921.875.875,0,0,1,.9.918" transform="translate(-5.753 -0.957)" fill="#040504"/>
      <path id="Path_9187" data-name="Path 9187" d="M18.381,5.881a.9.9,0,0,1-.911-.961.891.891,0,0,1,.891-.857.922.922,0,0,1,.937.924.932.932,0,0,1-.918.895" transform="translate(-4.122 -0.958)" fill="#040504"/>
    </g>
  </g>
</svg>
