<svg id="Delete" xmlns="http://www.w3.org/2000/svg" xmlns:xlink="http://www.w3.org/1999/xlink" width="18" height="17.999" viewBox="0 0 18 17.999">
  <defs>
    <clipPath id="clip-path">
      <rect id="Rectangle_4072" data-name="Rectangle 4072" width="18" height="17.999" fill="none"/>
    </clipPath>
  </defs>
  <g id="Group_10151" data-name="Group 10151" clip-path="url(#clip-path)">
    <path id="Path_9340" data-name="Path 9340" d="M8.99,18A9,9,0,1,1,18,9.015,9.015,9.015,0,0,1,8.99,18m8.043-9A8.034,8.034,0,1,0,9,17.033,8.046,8.046,0,0,0,17.034,9" transform="translate(0 0)" fill="#0b0b0b"/>
    <path id="Path_9341" data-name="Path 9341" d="M14.383,8.217a.643.643,0,0,1-.217.41c-.765.762-1.524,1.528-2.292,2.285-.117.115-.122.173,0,.291q1.169,1.151,2.321,2.318a.476.476,0,0,1-.178.837.487.487,0,0,1-.509-.184c-.764-.762-1.531-1.521-2.285-2.292-.136-.139-.2-.119-.323.007Q9.762,13.042,8.61,14.18a.479.479,0,0,1-.851-.17.493.493,0,0,1,.189-.509c.757-.757,1.512-1.519,2.275-2.27.134-.131.152-.2.006-.339-.776-.76-1.543-1.53-2.306-2.3a.474.474,0,0,1,.192-.832.5.5,0,0,1,.508.193c.757.757,1.52,1.51,2.27,2.276.139.142.206.133.34,0,.756-.77,1.52-1.531,2.286-2.291a.479.479,0,0,1,.847.188c.009.035.014.072.018.1" transform="translate(-2.061 -2.06)" fill="#111010"/>
  </g>
</svg>
