<svg xmlns="http://www.w3.org/2000/svg" xmlns:xlink="http://www.w3.org/1999/xlink" width="12.215" height="12.216" viewBox="0 0 12.215 12.216">
  <defs>
    <clipPath id="clip-path">
      <rect id="Rectangle_4073" data-name="Rectangle 4073" width="12.215" height="12.216" fill="#02b6e2"/>
    </clipPath>
  </defs>
  <g id="Group_10160" data-name="Group 10160" transform="translate(0 0)">
    <g id="Group_10159" data-name="Group 10159" transform="translate(0 0)" clip-path="url(#clip-path)">
      <path id="Path_9342" data-name="Path 9342" d="M12.215,2.553V8.779a.706.706,0,0,0-.069.263,2.483,2.483,0,0,1-.626,1.227c-.377.4-.775.777-1.16,1.167a2.551,2.551,0,0,1-.63.461,2.351,2.351,0,0,1-1.08.313c-1.913.01-3.825.005-5.737,0a3.194,3.194,0,0,1-.437-.019,2.8,2.8,0,0,1-.8-.231,2.873,2.873,0,0,1-1.3-1.181A2.4,2.4,0,0,1,.007,9.6C0,7.3,0,5,0,2.706a2.424,2.424,0,0,1,.182-.871A2.807,2.807,0,0,1,1.125.583,2.882,2.882,0,0,1,2.042.115,4.657,4.657,0,0,0,2.53,0H9.639c.011.032.039.019.06.022a3.056,3.056,0,0,1,.821.229A2.884,2.884,0,0,1,12.1,2.076a4.162,4.162,0,0,0,.115.477M.956,6.1h0q0,1.663,0,3.327a1.615,1.615,0,0,0,.087.5,1.873,1.873,0,0,0,.651.932,1.7,1.7,0,0,0,1.02.393c1.665.01,3.331,0,5,0,.261,0,.256,0,.262-.264A13.955,13.955,0,0,1,8,9.6a1.836,1.836,0,0,1,.692-1.208,1.884,1.884,0,0,1,1.239-.417c.414,0,.827,0,1.241,0,.066,0,.1-.007.1-.087-.018-1.724.03-3.448-.026-5.171a1.736,1.736,0,0,0-.447-1.1A1.877,1.877,0,0,0,9.32.957c-2.143-.007-4.285,0-6.428,0a1.936,1.936,0,0,0-1.516.714A1.72,1.72,0,0,0,.96,2.716c-.013,1.128,0,2.257,0,3.387M11.19,8.936c-.451,0-.891,0-1.331,0a.911.911,0,0,0-.728.364.8.8,0,0,0-.2.5c0,.3,0,.6,0,.9,0,.161,0,.322,0,.491a1.77,1.77,0,0,0,.744-.432c.377-.382.761-.757,1.137-1.14a1.618,1.618,0,0,0,.374-.68" transform="translate(0 0)" fill="#02b6e2"/>
      <path id="Path_9343" data-name="Path 9343" d="M7.064,4.736c-.93,0-1.86-.005-2.79,0a.494.494,0,0,1-.488-.371.482.482,0,0,1,.354-.577.42.42,0,0,1,.129-.009H9.86a.482.482,0,0,1,.458.278.441.441,0,0,1-.08.518.452.452,0,0,1-.348.159q-1.413,0-2.826,0" transform="translate(-0.965 -0.967)" fill="#02b6e2"/>
      <path id="Path_9344" data-name="Path 9344" d="M7.057,8.518c-.926,0-1.853-.006-2.778,0a.5.5,0,0,1-.492-.379.476.476,0,0,1,.351-.567.418.418,0,0,1,.116-.011H9.869a.493.493,0,0,1,.5.477.5.5,0,0,1-.5.479c-.938-.005-1.876,0-2.814,0" transform="translate(-0.966 -1.934)" fill="#02b6e2"/>
      <path id="Path_9345" data-name="Path 9345" d="M5.653,12.3c-.465,0-.93-.01-1.395,0a.513.513,0,0,1-.483-.482.506.506,0,0,1,.485-.479c.93.007,1.859,0,2.79,0a.481.481,0,0,1,.455.281.48.48,0,0,1-.421.673c-.477,0-.953,0-1.431,0" transform="translate(-0.965 -2.9)" fill="#02b6e2"/>
    </g>
  </g>
</svg>
