<svg xmlns="http://www.w3.org/2000/svg" xmlns:xlink="http://www.w3.org/1999/xlink" width="17.151" height="16.264" viewBox="0 0 17.151 16.264">
  <defs>
    <clipPath id="clip-path">
      <rect id="Rectangle_4215" data-name="Rectangle 4215" width="17.151" height="16.264" fill="#e21a22"/>
    </clipPath>
  </defs>
  <g id="Group_10274" data-name="Group 10274" transform="translate(0 0)">
    <g id="Group_10273" data-name="Group 10273" transform="translate(0 0)" clip-path="url(#clip-path)">
      <path id="Path_9627" data-name="Path 9627" d="M17.151,7.919v5.325c-.062,0-.123,0-.184,0-.9,0-1.809,0-2.713,0-.128,0-.159.032-.155.156.011.279,0,.558,0,.837a2.026,2.026,0,0,1-1.967,2.019c-.5.011-.994,0-1.49,0-2.73,0-5.459.009-8.188-.006A2.484,2.484,0,0,1,0,13.755q0-1.775,0-3.549Q0,5.919,0,1.632a.293.293,0,0,1,.08-.239Q.756.731,1.419.056c.075-.076.111-.07.181,0,.264.272.539.535.8.809.083.087.129.1.219,0,.265-.279.545-.545.812-.82.067-.07.1-.068.169,0,.257.265.529.515.776.787.121.133.185.109.293-.006.249-.265.514-.513.765-.774.071-.074.109-.077.182,0,.267.277.547.542.812.82.085.088.129.077.208,0C6.9.6,7.177.337,7.44.065c.074-.077.115-.085.194,0C7.9.34,8.18.6,8.446.883c.08.083.122.073.2,0,.26-.269.532-.527.79-.8.086-.09.134-.1.229,0,.425.436.856.865,1.29,1.291a.331.331,0,0,1,.107.261c0,1.473,0,2.947-.005,4.42,0,.13.031.164.162.163,1.295-.005,2.59,0,3.885,0a2.061,2.061,0,0,1,1.969,1.43.855.855,0,0,0,.083.276m-6.84,7.336a2.343,2.343,0,0,1-.264-1.157c.005-3.879,0-7.759.014-11.638a1.086,1.086,0,0,0-.423-.973c-.082-.062-.113-.068-.183.005-.264.273-.539.535-.8.809-.083.086-.128.1-.218,0-.265-.28-.545-.545-.813-.821-.067-.069-.1-.066-.169,0-.26.268-.532.526-.789.8-.1.1-.148.122-.255.006-.254-.274-.529-.529-.788-.8-.072-.074-.11-.076-.183,0-.263.273-.54.533-.8.81-.1.1-.145.083-.231-.006-.259-.269-.53-.528-.789-.8-.074-.077-.116-.085-.194,0-.267.278-.547.543-.812.821-.08.083-.121.072-.194,0-.268-.276-.546-.544-.814-.82-.069-.071-.11-.087-.182,0a3.371,3.371,0,0,1-.318.32.279.279,0,0,0-.1.232q0,5.819,0,11.638a1.738,1.738,0,0,0,.05.43,1.5,1.5,0,0,0,1.5,1.145q3.8,0,7.6,0h.156m3.057-8.038c-.746,0-1.454,0-2.162,0-.127,0-.155.031-.154.155.005,1,0,2,0,3q0,1.925,0,3.849a1.008,1.008,0,0,0,1.047,1.04,1.044,1.044,0,0,0,1-1.07q0-2.769,0-5.539a2.547,2.547,0,0,1,.272-1.428m.735,2.928c0,.658,0,1.316,0,1.974,0,.089.014.125.115.125q.912-.008,1.824,0c.093,0,.108-.032.108-.114,0-1.3,0-2.6,0-3.9a1.024,1.024,0,0,0-1.2-.99A1,1,0,0,0,14.1,8.254c0,.631,0,1.26,0,1.891" transform="translate(0 0)" fill="#e21a22"/>
      <path id="Path_9628" data-name="Path 9628" d="M5.512,10.071a.144.144,0,0,1,0-.034.56.56,0,0,0-.343-.674,1.307,1.307,0,0,1-.658-1.05c-.017-.115-.008-.185.145-.175a7.158,7.158,0,0,0,.719,0c.1,0,.14.031.167.128a.467.467,0,0,0,.535.347.5.5,0,0,0,.439-.438.5.5,0,0,0-.338-.519,1.719,1.719,0,0,0-.313-.044A1.5,1.5,0,0,1,5.37,4.754a.211.211,0,0,0,.144-.236c-.011-.261,0-.524-.005-.787,0-.085.021-.115.111-.112.261.006.524.005.787,0,.087,0,.114.023.111.111-.005.278,0,.558,0,.837a.157.157,0,0,0,.113.17,1.518,1.518,0,0,1,.886,1.175c.041.223.037.224-.186.224s-.436-.008-.653,0c-.116.006-.159-.029-.187-.142a.471.471,0,0,0-.5-.376.492.492,0,0,0,0,.984,1.662,1.662,0,0,1,.894.281,1.507,1.507,0,0,1-.237,2.606.191.191,0,0,0-.13.211c.007.268,0,.536,0,.8,0,.094-.024.123-.12.12-.262-.006-.524-.005-.787,0-.081,0-.105-.022-.1-.1.006-.151,0-.3,0-.452" transform="translate(-0.487 -0.392)" fill="#e21a22"/>
      <path id="Path_9629" data-name="Path 9629" d="M7.019,12.6c.792,0,1.583,0,2.375,0,.1,0,.144.018.14.133-.009.251-.005.5,0,.753,0,.087-.01.127-.113.126q-2.4-.005-4.8,0c-.1,0-.115-.038-.114-.125.005-.251.009-.5,0-.753,0-.114.036-.135.14-.135.792,0,1.583,0,2.375,0" transform="translate(-0.487 -1.363)" fill="#e21a22"/>
      <path id="Path_9630" data-name="Path 9630" d="M7.037,14.851c.78,0,1.561,0,2.342,0,.121,0,.162.022.156.153-.012.244-.007.491,0,.735,0,.088-.012.125-.115.125q-2.4-.005-4.8,0c-.1,0-.114-.041-.112-.127,0-.251.008-.5,0-.752,0-.117.038-.134.141-.133.8,0,1.595,0,2.392,0" transform="translate(-0.487 -1.606)" fill="#e21a22"/>
      <path id="Path_9631" data-name="Path 9631" d="M3.259,13.112c0,.134,0,.267,0,.4,0,.074-.023.094-.095.093-.273,0-.545,0-.818,0-.07,0-.1-.016-.1-.092,0-.277,0-.556,0-.834,0-.065.021-.085.086-.084.278,0,.557,0,.834,0,.081,0,.089.036.087.1,0,.139,0,.278,0,.417" transform="translate(-0.244 -1.363)" fill="#e21a22"/>
      <path id="Path_9632" data-name="Path 9632" d="M3.259,15.382c-.015.137.072.357-.032.45s-.307.023-.467.025c-.128,0-.256,0-.383,0-.087,0-.128-.012-.125-.114.008-.261.006-.523,0-.784,0-.085.018-.115.109-.113.261.006.523.007.784,0,.1,0,.12.034.116.123-.007.128,0,.256,0,.411" transform="translate(-0.243 -1.606)" fill="#e21a22"/>
    </g>
  </g>
</svg>
