<svg xmlns="http://www.w3.org/2000/svg" xmlns:xlink="http://www.w3.org/1999/xlink" width="20.707" height="21.048" viewBox="0 0 20.707 21.048">
  <defs>
    <clipPath id="clip-path">
      <rect id="Rectangle_3911" data-name="Rectangle 3911" width="20.707" height="21.048" transform="translate(-2 -2)" fill="#e21a22"/>
    </clipPath>
  </defs>
  <g id="Group_9781" data-name="Group 9781" transform="translate(2 2)">
    <g id="Group_9780" data-name="Group 9780" transform="translate(0 0)" clip-path="url(#clip-path)">
      <path id="Path_9025" data-name="Path 9025" d="M16.974,11.133c-.033-.007-.059-.02-.047-.062l.047.062" transform="translate(-5.899 -3.859)" fill="#e21a22" stroke="#e21a22" stroke-width="0.4"/>
      <path id="Path_9026" data-name="Path 9026" d="M15.85,11.739a2.82,2.82,0,0,1,1.433.321,3.025,3.025,0,0,1,.92.745,2.968,2.968,0,0,1,.555,1,2.925,2.925,0,0,1,.128.68,2.967,2.967,0,0,1-.364,1.677,2.157,2.157,0,0,1-.274.4c-.031.036-.027.044.014.069a5.408,5.408,0,0,1,.618.427,5.547,5.547,0,0,1,.576.558,3.965,3.965,0,0,1,.446.6,4.447,4.447,0,0,1,.53,1.218,5.417,5.417,0,0,1,.137.706,4.314,4.314,0,0,1,.038.542.426.426,0,0,1-.263.41.4.4,0,0,1-.452-.07.43.43,0,0,1-.147-.329,3.76,3.76,0,0,0-.682-2.185,3.886,3.886,0,0,0-1.286-1.162.377.377,0,0,0-.459-.008,2.4,2.4,0,0,1-1,.344,2.935,2.935,0,0,1-1.485-.171,3.2,3.2,0,0,1-.5-.25.11.11,0,0,0-.128,0,3.977,3.977,0,0,0-.827.55,3.7,3.7,0,0,0-.971,1.294,3.641,3.641,0,0,0-.316,1.1c-.021.18-.034.36-.042.541a.378.378,0,0,1-.27.349.371.371,0,0,1-.415-.063.5.5,0,0,1-.158-.5c.021-.109.01-.223.021-.335a4.172,4.172,0,0,1,.128-.709,4.68,4.68,0,0,1,1.453-2.327,4.67,4.67,0,0,1,.727-.521c.04-.023.044-.032.015-.07a3.052,3.052,0,0,1-.618-1.492,2.959,2.959,0,0,1,.42-1.922A2.976,2.976,0,0,1,15.231,11.8a2.039,2.039,0,0,1,.62-.059m.033,5.109a2.128,2.128,0,0,0,2.141-2.373,2.069,2.069,0,0,0-.605-1.261,2.1,2.1,0,0,0-1.569-.631,2.133,2.133,0,0,0,.033,4.266" transform="translate(-3.901 -4.09)" fill="#e21a22" stroke="#e21a22" stroke-width="0.4"/>
      <path id="Path_9027" data-name="Path 9027" d="M8.24,14.282a.555.555,0,0,1-.11.015c-.429,0-.859-.01-1.288,0-.285.009-.373-.16-.388-.39-.043-.642-.043-.629-.67-.853a4.837,4.837,0,0,1-1.21-.541.551.551,0,0,0-.765.119c-.352.35-.453.352-.8.007l-.723-.725a.414.414,0,0,1-.018-.67c.42-.463.4-.485.067-1.046a5.6,5.6,0,0,1-.491-1.327.391.391,0,0,0-.4-.313c-.116-.012-.235.007-.351,0C.865,8.533.7,8.446.711,8.163c.013-.438.009-.878,0-1.317,0-.226.07-.337.316-.343a3.767,3.767,0,0,1,.511-.051c.124.013.166-.073.183-.178-.008-.039,0-.057.044-.041a12.793,12.793,0,0,0,.463-1.206,2.457,2.457,0,0,1,.241-.413.468.468,0,0,0-.058-.708,1.332,1.332,0,0,1-.2-.21.4.4,0,0,1,.035-.567c.291-.274.566-.565.852-.844.231-.225.381-.23.612,0,.119.116.289.156.385.309.065.1.178.063.281,0a7.274,7.274,0,0,1,1.771-.732.422.422,0,0,0,.306-.472c0-.636.044-.675.694-.675.312,0,.625,0,.937,0s.419.128.414.42c-.009.653.072.544.644.814a5.526,5.526,0,0,1,1.376.62.239.239,0,0,0,.4-.057c.121-.177.37-.257.536-.425.074-.074.237.055.315.126.35.324.685.667,1.017,1.01a.27.27,0,0,1,0,.426.791.791,0,0,0-.135,1.242A3.771,3.771,0,0,1,13.118,6.1a.5.5,0,0,0,.556.416c.563-.005.621.059.621.622V7.9c0,.035,0,.064,0,.1H15a6.316,6.316,0,0,0-.062-1.539c-.035,0-.059-.018-.048-.059a.9.9,0,0,0-.971-.587c-.1.01-.194-.01-.208-.142a3.654,3.654,0,0,0-.453-1.152.282.282,0,0,1,.057-.4.86.86,0,0,0,.216-.968.639.639,0,0,0-.068-.175,13.629,13.629,0,0,0-1.177-1.253A1.048,1.048,0,0,0,10.9,1.643c-.2.182-.339.2-.535.053a.081.081,0,0,1-.1-.067,3.413,3.413,0,0,0-.7-.285c-.3-.034-.386-.168-.369-.469a.91.91,0,0,0-.78-.81C7.9,0,7.387.043,6.876,0A1.083,1.083,0,0,0,5.748,1.075c.008.1,0,.21-.13.22a3.615,3.615,0,0,0-1.13.434c-.162.069-.246.085-.384-.046A1,1,0,0,0,2.76,1.672a6.685,6.685,0,0,0-.9.866,1.252,1.252,0,0,0-.435.744,1.029,1.029,0,0,0,.284.913.183.183,0,0,1,.051.24c-.063.143-.233.267-.248.365-.041.272-.186.5-.238.763-.027.134-.092.181-.246.193A1.032,1.032,0,0,0,0,6.861C.04,7.277.01,7.7.011,8.118A1.024,1.024,0,0,0,1.083,9.26c.1.005.133.021.17.13A11.134,11.134,0,0,0,1.694,10.5a.3.3,0,0,1-.059.4,1.03,1.03,0,0,0-.144,1.156,16.575,16.575,0,0,0,1.142,1.211,1.256,1.256,0,0,0,.793.369.829.829,0,0,0,.7-.321.206.206,0,0,1,.311-.059,4.964,4.964,0,0,0,1.141.487c.136.042.186.092.173.23a1.1,1.1,0,0,0,.279.7c.249.385.657.266,1,.319A7.339,7.339,0,0,0,8.137,15c.038,0,.066-.014.1-.016Z" transform="translate(0 0)" fill="#e21a22" stroke="#e21a22" stroke-width="0.4"/>
      <path id="Path_9028" data-name="Path 9028" d="M9.034,12.446A2.99,2.99,0,1,1,12.2,8.57h.72A3.522,3.522,0,0,0,10.539,6c-.051.012-.1.022-.123-.046A2.644,2.644,0,0,0,9.3,5.8a4.563,4.563,0,0,0-1.11.2A3.438,3.438,0,0,0,6,7.9a2.64,2.64,0,0,0-.255.834A2.543,2.543,0,0,1,5.68,9.4l.042.042-.043.021a3.441,3.441,0,0,0,1.07,2.616,4.344,4.344,0,0,0,1.462.885,2.612,2.612,0,0,0,.823.182Z" transform="translate(-1.979 -2.02)" fill="#e21a22" stroke="#e21a22" stroke-width="0.4"/>
    </g>
  </g>
</svg>
