<svg id="Group_9966" data-name="Group 9966" xmlns="http://www.w3.org/2000/svg" xmlns:xlink="http://www.w3.org/1999/xlink" width="23.917" height="27.369" viewBox="0 0 23.917 27.369">
  <defs>
    <clipPath id="clip-path">
      <rect id="Rectangle_4045" data-name="Rectangle 4045" width="23.917" height="27.369" fill="none"/>
    </clipPath>
  </defs>
  <g id="Group_9965" data-name="Group 9965" clip-path="url(#clip-path)">
    <path id="Path_9152" data-name="Path 9152" d="M1.273,27.369c-.018-.052-.067-.045-.108-.059A1.611,1.611,0,0,1,.006,25.727Q0,22.133.007,18.54a1.606,1.606,0,0,1,1.685-1.647c.935,0,1.87,0,2.806,0a1.568,1.568,0,0,1,1.435.808.233.233,0,0,0,.273.126,3.841,3.841,0,0,0,1.542-.451,5.236,5.236,0,0,1,1.7-.406,5.179,5.179,0,0,1,3.13.315,2.214,2.214,0,0,0,1.23.135c.7-.085,1.392-.186,2.088-.275a1.4,1.4,0,0,1,1.24.414c.148.154.244.132.4.048a11.755,11.755,0,0,1,2.987-1.165,4.374,4.374,0,0,1,1.694-.092,1.789,1.789,0,0,1,1.67,1.82,3.549,3.549,0,0,1-1.141,3.1c-1.042,1.023-2.047,2.084-3.068,3.128a6.516,6.516,0,0,1-5.273,2.018c-2.069-.126-4.137-.274-6.2-.428a7.124,7.124,0,0,0-2.007.2c-.05.01-.1.006-.12.076a1.726,1.726,0,0,1-1.221,1.107Zm4.878-5.4c0,.784,0,1.568,0,2.352,0,.168.012.228.217.187a5.407,5.407,0,0,1,1.479-.164c.887.068,1.775.13,2.663.192,1.217.085,2.434.155,3.65.255a5.215,5.215,0,0,0,4.467-1.619c1.022-1.08,2.066-2.141,3.119-3.191a1.887,1.887,0,0,0,.5-1.839.209.209,0,0,0-.181-.189A2.234,2.234,0,0,0,21,17.986a11.835,11.835,0,0,0-3.191,1.3.252.252,0,0,0-.138.228A2.075,2.075,0,0,1,16.4,21.307a5.661,5.661,0,0,1-.828.285,41.384,41.384,0,0,1-4.255.705.805.805,0,0,1-.947-.65A.826.826,0,0,1,11.1,20.7c.65-.1,1.3-.178,1.952-.281a14.527,14.527,0,0,0,2.45-.492c.469-.159.651-.3.548-1-.02-.137-.066-.179-.2-.158-.448.068-.9.123-1.346.193a4.155,4.155,0,0,1-2.365-.12,3.976,3.976,0,0,0-2.314-.291,4.109,4.109,0,0,0-1.374.288,5.311,5.311,0,0,1-2.106.6c-.173.018-.193.086-.192.233.006.766,0,1.532,0,2.3m-1.614.177c0-1.149,0-2.3,0-3.446,0-.164-.04-.208-.206-.206q-1.242.013-2.484,0c-.174,0-.222.045-.221.22q.009,3.418,0,6.838c0,.178.052.218.222.217.819-.009,1.638-.011,2.457,0,.186,0,.236-.041.234-.231-.01-1.131,0-2.261,0-3.392" transform="translate(0 0)" fill="#090909"/>
    <path id="Path_9153" data-name="Path 9153" d="M13.714,0a7.645,7.645,0,1,1-7.67,7.631A7.664,7.664,0,0,1,13.714,0m6.013,7.657a6.026,6.026,0,1,0-6.046,6.028,6.04,6.04,0,0,0,6.046-6.028" transform="translate(0 0)" fill="#e21a22"/>
    <path id="Path_9154" data-name="Path 9154" d="M14.6,9.1a.6.6,0,0,0-.44-.6c-.445-.175-.9-.33-1.326-.546a2.222,2.222,0,0,1-1.287-1.307A2.184,2.184,0,0,1,12.7,4.064a.3.3,0,0,0,.2-.288A.8.8,0,0,1,13.7,3a.815.815,0,0,1,.814.759.232.232,0,0,0,.188.235,2.9,2.9,0,0,1,.813.447.8.8,0,1,1-.9,1.332,1.374,1.374,0,0,0-.934-.319.614.614,0,0,0-.544.321.414.414,0,0,0,.173.607,7.573,7.573,0,0,0,1.312.574,2.28,2.28,0,0,1,1.6,2.109,2.541,2.541,0,0,1-1.468,2.323.332.332,0,0,0-.243.344.788.788,0,0,1-.755.783.774.774,0,0,1-.843-.71c-.021-.187-.089-.242-.266-.279a2.852,2.852,0,0,1-1.006-.47.8.8,0,0,1-.247-1.1.787.787,0,0,1,1.1-.259A1.98,1.98,0,0,0,13.731,10a.888.888,0,0,0,.864-.9" transform="translate(0 0)" fill="#e21a22"/>
  </g>
</svg>
