<svg xmlns="http://www.w3.org/2000/svg" xmlns:xlink="http://www.w3.org/1999/xlink" width="13.656" height="15.777" viewBox="0 0 13.656 15.777">
  <defs>
    <clipPath id="clip-path">
      <rect id="Rectangle_3569" data-name="Rectangle 3569" width="13.657" height="15.777" fill="#fff"/>
    </clipPath>
  </defs>
  <g id="Group_9577" data-name="Group 9577" transform="translate(0 0)">
    <g id="Group_9576" data-name="Group 9576" transform="translate(0 0)" clip-path="url(#clip-path)">
      <path id="Path_4795" data-name="Path 4795" d="M7.483,15.079a2.218,2.218,0,0,1-.386-.313c-.059-.067-.129-.047-.2-.047-1.768,0-3.536-.007-5.3,0A1.559,1.559,0,0,1,.4,14.21a1.382,1.382,0,0,1-.4-.964Q0,7.3.005,1.357A1.239,1.239,0,0,1,.293.646,1.527,1.527,0,0,1,1.6,0H9.944a1.607,1.607,0,0,1,.993.308,1.543,1.543,0,0,1,.595.982,2.946,2.946,0,0,1,.03.486q0,3.194,0,6.388a.264.264,0,0,0,.146.273A3.647,3.647,0,0,1,13.158,9.9a4.013,4.013,0,0,1,.45,1.32,3.892,3.892,0,0,1-.141,1.81,3.746,3.746,0,0,1-1.118,1.732,3.962,3.962,0,0,1-2.094.97,3.853,3.853,0,0,1-2.282-.366c-.156-.076-.3-.176-.45-.266l-.037-.025M11.261,9.4A3.219,3.219,0,0,0,10.185,9a3.376,3.376,0,0,0-.712-.025,2.428,2.428,0,0,0-1.219.366,2.9,2.9,0,0,0-.768.671,3.313,3.313,0,0,0-.418.683,2.58,2.58,0,0,0-.23,1.192A2.988,2.988,0,0,0,7,12.816a2.857,2.857,0,0,0,1.275,1.52,2.777,2.777,0,0,0,1.949.339,2.913,2.913,0,0,0,1.828-1.154A2.79,2.79,0,0,0,12.6,11.8a3.312,3.312,0,0,0-.221-1.084l-.026-.034A2.934,2.934,0,0,0,11.4,9.486l-.037-.025L11.3,9.42,11.261,9.4m-5.152,4.01-.026-.034c-.027-.074-.052-.15-.082-.223a2.748,2.748,0,0,1-.212-.921,5.3,5.3,0,0,1,.022-.96A3.932,3.932,0,0,1,6.387,9.7a3.789,3.789,0,0,1,.795-.906,4.345,4.345,0,0,1,.943-.577,3.968,3.968,0,0,1,1-.28,3.508,3.508,0,0,1,1.184.013c.171.027.2.01.2-.161-.021-2.125.043-4.25-.033-6.375l-.026-.034a.5.5,0,0,0-.2-.227c0-.063-.03-.052-.067-.035a1.2,1.2,0,0,0-.422-.065q-2.2-.005-4.4,0c-1.21,0-2.419,0-3.628,0a.656.656,0,0,0-.559.182.733.733,0,0,0-.116.536c.015,3.789-.043,7.579.026,11.368a.48.48,0,0,0,.527.526H6.214l-.106-.261" transform="translate(0 0)" fill="#fff"/>
      <path id="Path_4796" data-name="Path 4796" d="M16.963,34.182l.037.025c-.024.009-.03-.008-.037-.025" transform="translate(-9.48 -19.103)" fill="#fff"/>
      <path id="Path_4797" data-name="Path 4797" d="M23.141,2.554c-.025-.007-.059,0-.067-.035.037-.017.071-.028.067.035" transform="translate(-12.895 -1.401)" fill="#fff"/>
      <path id="Path_4798" data-name="Path 4798" d="M23.715,3.165c-.019,0-.033-.01-.026-.034l.026.034" transform="translate(-13.238 -1.75)" fill="#fff"/>
      <path id="Path_4799" data-name="Path 4799" d="M25.563,21.324c-.025.01-.031-.008-.037-.025l.037.025" transform="translate(-14.266 -11.903)" fill="#fff"/>
      <path id="Path_4800" data-name="Path 4800" d="M25.786,21.473c-.024.01-.03-.008-.037-.025l.037.025" transform="translate(-14.39 -11.987)" fill="#fff"/>
      <path id="Path_4801" data-name="Path 4801" d="M28.032,24.24c-.019,0-.033-.011-.026-.034l.026.034" transform="translate(-15.651 -13.528)" fill="#fff"/>
      <path id="Path_4802" data-name="Path 4802" d="M13.81,30.345c-.019,0-.034-.011-.026-.034l.026.034" transform="translate(-7.702 -16.94)" fill="#fff"/>
      <path id="Path_4803" data-name="Path 4803" d="M9.067,9.39H6.457a.486.486,0,0,1-.513-.46.493.493,0,0,1,.5-.589c.328-.01.656,0,.985,0h4.236a.486.486,0,0,1,.562.444.5.5,0,0,1-.5.606c-.886,0-1.773,0-2.66,0" transform="translate(-3.32 -4.659)" fill="#fff"/>
      <path id="Path_4804" data-name="Path 4804" d="M9.068,15.348H6.457a.486.486,0,0,1-.512-.46.492.492,0,0,1,.5-.588c.339-.01.678,0,1.018,0h4.2a.486.486,0,0,1,.562.445.5.5,0,0,1-.5.605c-.886,0-1.773,0-2.66,0" transform="translate(-3.321 -7.989)" fill="#fff"/>
      <path id="Path_4805" data-name="Path 4805" d="M6.979,21.3H6.4a.493.493,0,0,1-.462-.461.516.516,0,0,1,.58-.592c.328.009.656-.011.984.005s.461.152.539.485a.586.586,0,0,1-.337.536.3.3,0,0,1-.139.027h-.59" transform="translate(-3.319 -11.317)" fill="#fff"/>
      <path id="Path_4806" data-name="Path 4806" d="M20.689,23.935a.528.528,0,0,1,.719.765c-.416.567-.84,1.129-1.263,1.692-.077.1-.161.2-.236.307a.552.552,0,0,1-.91.087q-.474-.465-.94-.94A.55.55,0,0,1,18,25.057a.577.577,0,0,1,.767-.009c.194.193.386.388.6.6.172-.23.336-.456.508-.675.263-.335.5-.693.779-1.014l.036-.025" transform="translate(-9.983 -13.317)" fill="#fff"/>
      <path id="Path_4807" data-name="Path 4807" d="M24.226,24.067l-.036.025c.005-.018.012-.033.036-.025" transform="translate(-13.519 -13.449)" fill="#fff"/>
    </g>
  </g>
</svg>
