<svg xmlns="http://www.w3.org/2000/svg" xmlns:xlink="http://www.w3.org/1999/xlink" width="16.678" height="16.696" viewBox="0 0 16.678 16.696">
  <defs>
    <clipPath id="clip-path">
      <rect id="Rectangle_4075" data-name="Rectangle 4075" width="16.678" height="16.696" fill="none"/>
    </clipPath>
  </defs>
  <g id="Group_10164" data-name="Group 10164" transform="translate(1 1)">
    <g id="Group_10163" data-name="Group 10163" transform="translate(-1 -1)" clip-path="url(#clip-path)">
      <path id="Path_9360" data-name="Path 9360" d="M6.961,15.174h-.03c-.108-.11-.256-.061-.383-.083-.284-.05-.571-.087-.849-.164a8.329,8.329,0,0,1-1.33-.491,7.368,7.368,0,0,1-1.408-.858A7.734,7.734,0,0,1,1.715,12.37a7.572,7.572,0,0,1-.633-.9,7.787,7.787,0,0,1-.618-1.3,7.127,7.127,0,0,1-.448-2.1A7.369,7.369,0,0,1,.063,6.6,8.259,8.259,0,0,1,.425,5.069,7.181,7.181,0,0,1,.987,3.833a7.707,7.707,0,0,1,.823-1.161A7.976,7.976,0,0,1,2.987,1.555,7.318,7.318,0,0,1,4.5.652,7.624,7.624,0,0,1,6.483.082,1.191,1.191,0,0,0,6.961,0H8.144A6.265,6.265,0,0,0,8.9.117,7.913,7.913,0,0,1,10.758.7,7.6,7.6,0,0,1,12.7,1.995a7.516,7.516,0,0,1,1.1,1.256,7.382,7.382,0,0,1,1.281,3.285,1.055,1.055,0,0,0,.082.445V8.164a.539.539,0,0,0-.056.288c.007.063.027.078.056.008v.059c-.008-.026-.018-.064-.05-.021-.047.062-.027.141-.04.212a8.594,8.594,0,0,1-.437,1.611,7.578,7.578,0,0,1-1.5,2.4,7.346,7.346,0,0,1-.9.817,7.441,7.441,0,0,1-1.989,1.12,7.22,7.22,0,0,1-2.876.483c-.1,0-.207,0-.311,0-.03,0-.071-.018-.088.029M4.24,7.13c-.073.012-.149-.019-.225.028a.472.472,0,0,0-.1.754q1.1,1.105,2.206,2.2A.455.455,0,0,0,6.8,10.11l4.443-4.442a.472.472,0,1,0-.716-.616Q8.546,7.038,6.561,9.025c-.078.078-.119.09-.2,0-.578-.586-1.164-1.164-1.741-1.75A.393.393,0,0,0,4.24,7.13" transform="translate(0.761 0.761)" fill="#4d9e39"/>
      <path id="Path_9362" data-name="Path 9362" d="M5.423,8.662a.393.393,0,0,1,.376.149c.578.586,1.164,1.164,1.741,1.75.084.086.126.074.2,0q1.982-1.99,3.97-3.973a.472.472,0,1,1,.716.616L7.987,11.642a.455.455,0,0,1-.683.008Q6.2,10.55,5.1,9.445a.472.472,0,0,1,.1-.754c.076-.047.152-.016.225-.028" transform="translate(-0.422 -0.771)" fill="#fefffe" stroke="#fff" stroke-width="1"/>
    </g>
  </g>
</svg>
