<svg xmlns="http://www.w3.org/2000/svg" xmlns:xlink="http://www.w3.org/1999/xlink" width="13.434" height="14.802" viewBox="0 0 13.434 14.802">
  <defs>
    <clipPath id="clip-path">
      <rect id="Rectangle_4058" data-name="Rectangle 4058" width="13.434" height="14.802" fill="#fff"/>
    </clipPath>
  </defs>
  <g id="Group_9993" data-name="Group 9993" transform="translate(0 0)">
    <g id="Group_9992" data-name="Group 9992" transform="translate(0 0)" clip-path="url(#clip-path)">
      <path id="Path_9200" data-name="Path 9200" d="M0,7.418C0,6.031-.005,4.644,0,3.257A3.318,3.318,0,0,1,2.56.093,3.894,3.894,0,0,1,3.387.005C4.779,0,6.171,0,7.563,0c.037,0,.075,0,.112,0a.51.51,0,0,1,.55.568.545.545,0,0,1-.579.538c-.423,0-.846,0-1.269,0q-1.526,0-3.052,0A2.2,2.2,0,0,0,1.1,3.323q-.006,4.09,0,8.179a2.2,2.2,0,0,0,2.23,2.212q3.39,0,6.779,0a2.2,2.2,0,0,0,2.23-2.228c0-1.918,0-3.836,0-5.753a1.249,1.249,0,0,1,.016-.272.507.507,0,0,1,.555-.386.538.538,0,0,1,.512.45c.008.08-.053.164-.053.247q0,2.773,0,5.544a2.032,2.032,0,0,1-.217,1.471,3.2,3.2,0,0,1-3.073,1.958c-2.184.012-4.369,0-6.554.006-.163,0-.328.059-.49.05A3.265,3.265,0,0,1,.072,12.2,4.268,4.268,0,0,1,0,11.436C0,10.1,0,8.758,0,7.418Z" transform="translate(0 0)" fill="#fff"/>
      <path id="Path_9201" data-name="Path 9201" d="M14.613,2.06V1.5c0-.322,0-.643,0-.964A.533.533,0,0,1,15.166,0a.5.5,0,0,1,.54.526c0,.444,0,.889,0,1.334v.187c.071,0,.128.008.185.008.422,0,.846,0,1.268,0a.554.554,0,1,1,.031,1.106c-.428,0-.857,0-1.285,0h-.2v.178c0,.428,0,.857,0,1.285a.587.587,0,0,1-.553.593.545.545,0,0,1-.54-.59c0-.481,0-.962,0-1.466h-.181c-.439,0-.878,0-1.317,0a.556.556,0,0,1-.54-.732A.439.439,0,0,1,13,2.077c.465-.016.931-.012,1.4-.017h.22" transform="translate(-4.33 -0.002)" fill="#fff"/>
      <path id="Path_9202" data-name="Path 9202" d="M8.5,11.576H5.752a.465.465,0,0,1-.474-.291.544.544,0,0,1,.075-.6c.121-.133.259-.28.474-.138.027.017.073,0,.111,0q2.578,0,5.155,0c.077,0,.153-.056.231-.058a.436.436,0,0,1,.4.22.578.578,0,0,1,.019.583.513.513,0,0,1-.485.286q-1.381,0-2.763,0Z" transform="translate(-1.801 -3.618)" fill="#fff"/>
      <path id="Path_9203" data-name="Path 9203" d="M8.506,16.821c-.9,0-1.808,0-2.713,0a.529.529,0,0,1-.547-.7.509.509,0,0,1,.422-.388c.083-.005.168.049.251.049q2.6,0,5.2,0c.078,0,.156-.056.234-.056a.463.463,0,0,1,.441.376.557.557,0,0,1-.576.716c-.9,0-1.808,0-2.713,0" transform="translate(-1.803 -5.426)" fill="#fff"/>
      <path id="Path_9204" data-name="Path 9204" d="M7.156,5.236c.449,0,.9-.005,1.348,0a.55.55,0,0,1,.527.768.522.522,0,0,1-.5.333c-.915.006-1.83.009-2.744,0a.576.576,0,0,1-.551-.563.6.6,0,0,1,.593-.539c.444,0,.888,0,1.332,0" transform="translate(-1.805 -1.806)" fill="#fff"/>
    </g>
  </g>
</svg>
