<svg xmlns="http://www.w3.org/2000/svg" xmlns:xlink="http://www.w3.org/1999/xlink" width="16.701" height="16.692" viewBox="0 0 16.701 16.692">
  <defs>
    <clipPath id="clip-path">
      <rect id="Rectangle_4221" data-name="Rectangle 4221" width="16.701" height="16.692" fill="#e21a22"/>
    </clipPath>
  </defs>
  <g id="Group_10286" data-name="Group 10286" transform="translate(0 0)">
    <g id="Group_10285" data-name="Group 10285" transform="translate(0 0)" clip-path="url(#clip-path)">
      <path id="Path_9654" data-name="Path 9654" d="M10.429,11.318c.267,0,.534-.007.8,0a.187.187,0,0,0,.224-.158c.148-.484.311-.964.467-1.444a1.11,1.11,0,0,1,2.152,0c.158.481.319.961.465,1.445a.193.193,0,0,0,.229.159c.521-.006,1.043,0,1.564,0a1.105,1.105,0,0,1,.67,2q-.649.481-1.307.949a.16.16,0,0,0-.07.22c.168.5.326,1,.486,1.5a1.106,1.106,0,0,1-1.72,1.256q-.641-.46-1.276-.93a.161.161,0,0,0-.231,0c-.447.332-.893.665-1.353.977a1.034,1.034,0,0,1-1.165.031,1.063,1.063,0,0,1-.548-1.014,2.67,2.67,0,0,1,.189-.7c.11-.357.223-.713.352-1.064a.234.234,0,0,0-.115-.321q-.654-.458-1.291-.941a1.031,1.031,0,0,1-.4-1.046,1.069,1.069,0,0,1,.758-.87.989.989,0,0,1,.34-.051c.26,0,.521,0,.781,0M14.947,16.2c-.207-.64-.4-1.24-.594-1.841a.584.584,0,0,1,.236-.73c.23-.168.461-.333.69-.5l.879-.643c-.681,0-1.309,0-1.936,0a.586.586,0,0,1-.63-.462c-.158-.486-.314-.975-.475-1.46a1.138,1.138,0,0,0-.129-.337L12.44,11.9c-.162.494-.283.581-.8.581H9.853c.067.056.106.092.148.122q.66.481,1.321.96a.642.642,0,0,1,.288.9q-.275.842-.549,1.688c.08.007.117-.048.164-.082.452-.325.9-.653,1.352-.98a.6.6,0,0,1,.841,0L14.947,16.2" transform="translate(-0.761 -0.793)" fill="#e21a22"/>
      <path id="Path_9655" data-name="Path 9655" d="M8.334,8.54a4.27,4.27,0,1,1,4.273-4.267A4.269,4.269,0,0,1,8.334,8.54m3.1-4.264A3.1,3.1,0,1,0,8.317,7.364a3.091,3.091,0,0,0,3.112-3.088" transform="translate(-0.363 0)" fill="#e21a22"/>
      <path id="Path_9656" data-name="Path 9656" d="M4.594,16.818c-1.066,0-2.132,0-3.2,0A1.314,1.314,0,0,1,.051,15.8a.38.38,0,0,1-.015-.053,9.085,9.085,0,0,1,.014-1.76,2.954,2.954,0,0,1,.978-1.734,6.68,6.68,0,0,1,2.406-1.405,12.7,12.7,0,0,1,3.393-.7c.357-.026.714-.03,1.071-.04a.583.583,0,0,1,.655.571.6.6,0,0,1-.652.6,12.11,12.11,0,0,0-4.039.658,6.065,6.065,0,0,0-1.88,1.028,1.912,1.912,0,0,0-.771,1.189,7.7,7.7,0,0,0-.02,1.015c0,.529-.052.478.475.478H7.916a.587.587,0,0,1,.627.686.564.564,0,0,1-.5.477,2.043,2.043,0,0,1-.236.009H4.594" transform="translate(0 -0.902)" fill="#e21a22"/>
    </g>
  </g>
</svg>
