<svg xmlns="http://www.w3.org/2000/svg" xmlns:xlink="http://www.w3.org/1999/xlink" width="17" height="17.004" viewBox="0 0 17 17.004">
  <defs>
    <clipPath id="clip-path">
      <rect id="Rectangle_4060" data-name="Rectangle 4060" width="17" height="17.004" fill="#fff"/>
    </clipPath>
  </defs>
  <g id="Group_10000" data-name="Group 10000" transform="translate(0 0)">
    <g id="Group_9999" data-name="Group 9999" transform="translate(0 0)" clip-path="url(#clip-path)">
      <path id="Path_9207" data-name="Path 9207" d="M9.132,17H7.8c-.009-.036-.038-.031-.065-.033a8.276,8.276,0,0,1-1.463-.261A8.529,8.529,0,0,1,.09,9.759,2.28,2.28,0,0,0,0,9.2V7.806c.036-.009.032-.038.033-.065a5.891,5.891,0,0,1,.112-.82,8.358,8.358,0,0,1,3.112-5.1A8.289,8.289,0,0,1,9.674.083,7.977,7.977,0,0,1,14.05,2.075a8.286,8.286,0,0,1,2.766,8.17A8.135,8.135,0,0,1,13.733,15.2a8.334,8.334,0,0,1-3.96,1.714A4.065,4.065,0,0,0,9.132,17M8.5,1.065a7.438,7.438,0,1,0,7.441,7.443A7.46,7.46,0,0,0,8.5,1.065" transform="translate(0 0)" fill="#fff"/>
      <path id="Path_9208" data-name="Path 9208" d="M10.18,13.954c0-.352,0-.348-.337-.441a2.777,2.777,0,0,1-1.036-.533.534.534,0,0,1-.11-.763.526.526,0,0,1,.752-.087,2.063,2.063,0,0,0,2.08.271,1.28,1.28,0,0,0,.564-.391.751.751,0,0,0-.106-1.124A2.138,2.138,0,0,0,10.6,10.44a2.8,2.8,0,0,1-2.053-.891,1.809,1.809,0,0,1,.2-2.66,2.914,2.914,0,0,1,1.3-.625c.107-.022.15-.057.142-.17-.009-.149-.005-.3,0-.448a.531.531,0,0,1,1.061.005c0,.149.007.3,0,.448-.006.1.022.144.129.164a2.754,2.754,0,0,1,1.233.567.535.535,0,1,1-.644.853,2.049,2.049,0,0,0-2.3-.144,1.019,1.019,0,0,0-.416.393.75.75,0,0,0,.194,1,2.14,2.14,0,0,0,1.388.447,2.8,2.8,0,0,1,2.053.89,1.81,1.81,0,0,1-.2,2.661,2.905,2.905,0,0,1-1.3.624c-.107.022-.149.057-.142.17.01.149.005.3,0,.448a.531.531,0,0,1-1.062-.006c0-.072,0-.144,0-.215" transform="translate(-2.211 -1.408)" fill="#fff"/>
    </g>
  </g>
</svg>
