<svg xmlns="http://www.w3.org/2000/svg" xmlns:xlink="http://www.w3.org/1999/xlink" width="17.029" height="17.028" viewBox="0 0 17.029 17.028">
  <defs>
    <clipPath id="clip-path">
      <rect id="Rectangle_3915" data-name="Rectangle 3915" width="17.029" height="17.028" fill="#e21a22"/>
    </clipPath>
  </defs>
  <g id="Group_9785" data-name="Group 9785" transform="translate(0 0)">
    <g id="Group_9784" data-name="Group 9784" transform="translate(0 0)" clip-path="url(#clip-path)">
      <path id="Path_9032" data-name="Path 9032" d="M4.326,10.081c-.293,0-.587-.016-.879,0a1.47,1.47,0,0,1-1.4-.98,1.135,1.135,0,0,1-.083-.408c.006-.808-.013-1.616.009-2.423A1.372,1.372,0,0,1,2.805,5.1c.114-.043.232-.077.35-.112s.091-.16.1-.233a5,5,0,0,0,.036-.522,3.127,3.127,0,0,1,.126-.7c.069-.278.178-.547.26-.821a4.065,4.065,0,0,1,.31-.592,3.005,3.005,0,0,1,.4-.566A3.775,3.775,0,0,1,5.684.565,4.267,4.267,0,0,1,6.628.233,6.086,6.086,0,0,1,7.609.051,5.605,5.605,0,0,1,8.939.036c.171.03.348.011.524.033a6.4,6.4,0,0,1,1.634.4A4.067,4.067,0,0,1,12.579,1.5a4.237,4.237,0,0,1,.652,1,5.692,5.692,0,0,1,.448,1.508,7.455,7.455,0,0,1,.078.829c.006.089.016.129.122.149a1.425,1.425,0,0,1,1.14,1.212,19.815,19.815,0,0,1,.025,2.465,1.468,1.468,0,0,1-1.415,1.4c-.277,0-.554,0-.83,0-.068,0-.127,0-.139.1a3.74,3.74,0,0,1-.737,1.781.222.222,0,0,0-.057.146c0,.321,0,.641.006.962-.008.024,0,.031.026.029.422.212.859.39,1.3.563.567.223,1.109.5,1.682.712.431.157.839.364,1.255.553a1.382,1.382,0,0,1,.829.99c.007.031,0,.092.052.109v.664a1.208,1.208,0,0,1-.365.332H.341A.646.646,0,0,1,0,16.374a1.558,1.558,0,0,1,.517-1.248,2.125,2.125,0,0,1,.644-.35c.543-.232,1.085-.466,1.628-.7.5-.211.993-.419,1.489-.63.25-.106.5-.221.749-.32a.167.167,0,0,0,.128-.18c0-.271,0-.542,0-.813a.236.236,0,0,0-.051-.148,3.633,3.633,0,0,1-.693-1.476.464.464,0,0,1-.022-.239c.018-.06-.041-.112-.062-.169l.021-.024H4.326m8.409-1.041c-.006.024,0,.034.027.029.237,0,.475-.009.711.009a.533.533,0,0,0,.58-.57q.019-1.009,0-2.02a.479.479,0,0,0-.464-.534c-.274-.023-.551,0-.827,0-.026-.006-.032.008-.027.03ZM4.26,5.956c-.287,0-.574-.009-.862,0a.461.461,0,0,0-.427.4q-.011,1.163,0,2.325a.468.468,0,0,0,.429.4c.287,0,.574,0,.862,0,.024.005.033-.005.027-.028V5.986c.005-.023,0-.036-.027-.03m7.229,4.759c-.055-.025-.08,0-.113.026a2.757,2.757,0,0,1-1.432.517,9.47,9.47,0,0,1-1.025-.008.466.466,0,0,1-.306-.092.507.507,0,0,1-.171-.564.514.514,0,0,1,.511-.35c.31,0,.62,0,.93,0a1.44,1.44,0,0,0,.621-.156c.4-.2.744-.482,1.121-.714a.207.207,0,0,0,.109-.209q0-1.627,0-3.254a3.158,3.158,0,0,0-.562-1.771.778.778,0,0,0-.9-.345,6.551,6.551,0,0,0-1.041.351,2.094,2.094,0,0,1-1.658-.066A3.766,3.766,0,0,0,6.5,3.763a.612.612,0,0,0-.552.178,1.84,1.84,0,0,0-.385.627,3.411,3.411,0,0,0-.278,1.289c.016,1.046,0,2.091.007,3.137a7.56,7.56,0,0,0,.028,1.039,2.833,2.833,0,0,0,.281.883,2.981,2.981,0,0,0,.886,1.033,3.332,3.332,0,0,0,1.82.645c.146.01.3-.024.44-.024a2.849,2.849,0,0,0,1.272-.318,3,3,0,0,0,1.471-1.535M8.048,1.037a3.651,3.651,0,0,0-.82.084,4.668,4.668,0,0,0-1.149.387A2.849,2.849,0,0,0,4.921,2.515a4.327,4.327,0,0,0-.658,2.268c0,.046-.051.124.053.141s.092-.089.1-.13a3.7,3.7,0,0,1,.826-1.561,1.685,1.685,0,0,1,1.515-.454,3.992,3.992,0,0,1,1.191.373,1.139,1.139,0,0,0,.995.026c.221-.1.457-.178.687-.263a2.21,2.21,0,0,1,1.4-.09,2.1,2.1,0,0,1,1.286,1.306,5.488,5.488,0,0,1,.262.722c.029.1.083.068.133.067.075,0,.047-.071.036-.1a2.153,2.153,0,0,1-.051-.464,4.928,4.928,0,0,0-.212-.994,3.019,3.019,0,0,0-1.255-1.685,4.332,4.332,0,0,0-2.27-.634,2.9,2.9,0,0,0-.92,0M6.157,12.931a4.367,4.367,0,0,0,.16,1.578,2.068,2.068,0,0,0,1.349,1.4,2.929,2.929,0,0,0,1.208.08,2,2,0,0,0,1.748-1.3,3.771,3.771,0,0,0,.247-1.409c.005-.333,0-.328-.288-.185a4.6,4.6,0,0,1-1.543.475,4.745,4.745,0,0,1-1.434-.05,3.894,3.894,0,0,1-1.447-.582m-.131,3.081a3.673,3.673,0,0,1-.793-1.689c-.036-.168-.083-.153-.195-.1L3.426,14.9c-.679.289-1.355.583-2.037.866a.668.668,0,0,0-.314.244Zm9.906,0a.511.511,0,0,0-.284-.222c-.567-.246-1.137-.486-1.705-.727-.669-.283-1.338-.564-2.006-.85-.122-.052-.158.006-.169.109a2.4,2.4,0,0,1-.09.375,3.338,3.338,0,0,1-.7,1.315Z" transform="translate(0 0)" fill="#e21a22"/>
      <path id="Path_9033" data-name="Path 9033" d="M26.524,26.907a1.216,1.216,0,0,0,.365-.332c0,.11.043.264-.012.32s-.21.012-.32.012Z" transform="translate(-9.876 -9.895)" fill="#e21a22"/>
      <path id="Path_9034" data-name="Path 9034" d="M6.892,16.062l.024,0-.022.023a.056.056,0,0,1,0-.025" transform="translate(-2.566 -5.981)" fill="#e21a22"/>
      <path id="Path_9035" data-name="Path 9035" d="M18.941,20.836c-.023,0-.034-.005-.026-.029a.274.274,0,0,0,.026.029" transform="translate(-7.042 -7.748)" fill="#e21a22"/>
      <path id="Path_9036" data-name="Path 9036" d="M6.814,9.518l-.027-.03c.027-.006.033.008.027.03" transform="translate(-2.527 -3.533)" fill="#e21a22"/>
      <path id="Path_9037" data-name="Path 9037" d="M20.316,9.488l-.027.03c-.005-.023,0-.036.027-.03" transform="translate(-7.554 -3.533)" fill="#e21a22"/>
      <path id="Path_9038" data-name="Path 9038" d="M6.787,14.433l.027-.028c.006.024,0,.033-.027.028" transform="translate(-2.527 -5.364)" fill="#e21a22"/>
      <path id="Path_9039" data-name="Path 9039" d="M20.29,14.4l.026.028q-.036.008-.026-.028" transform="translate(-7.554 -5.364)" fill="#e21a22"/>
    </g>
  </g>
</svg>
