<svg xmlns="http://www.w3.org/2000/svg" xmlns:xlink="http://www.w3.org/1999/xlink" width="15.453" height="17.028" viewBox="0 0 15.453 17.028">
  <defs>
    <clipPath id="clip-path">
      <rect id="Rectangle_3781" data-name="Rectangle 3781" width="15.453" height="17.028" fill="#e21a22"/>
    </clipPath>
  </defs>
  <g id="Group_9663" data-name="Group 9663" transform="translate(0 0)">
    <g id="Group_9662" data-name="Group 9662" transform="translate(0 0)" clip-path="url(#clip-path)">
      <path id="Path_5534" data-name="Path 5534" d="M0,8.534c0-1.6-.009-3.192,0-4.787A3.817,3.817,0,0,1,2.945.107,4.48,4.48,0,0,1,3.9.006C5.5,0,7.1,0,8.7,0c.043,0,.086,0,.129,0a.587.587,0,0,1,.633.653.627.627,0,0,1-.666.619c-.487,0-.973,0-1.46,0q-1.755,0-3.51,0A2.529,2.529,0,0,0,1.263,3.822q-.007,4.7,0,9.409a2.53,2.53,0,0,0,2.565,2.544q3.9,0,7.8,0a2.531,2.531,0,0,0,2.565-2.563c0-2.206,0-4.412,0-6.618a1.437,1.437,0,0,1,.018-.313.584.584,0,0,1,.639-.445.619.619,0,0,1,.589.518c.009.092-.061.189-.061.284q-.006,3.189,0,6.378a2.338,2.338,0,0,1-.249,1.692,3.681,3.681,0,0,1-3.534,2.253c-2.513.014-5.026,0-7.539.007-.188,0-.377.068-.564.057A3.756,3.756,0,0,1,.083,14.034a4.91,4.91,0,0,1-.078-.879C0,11.614,0,10.074,0,8.534Z" transform="translate(0 0)" fill="#e21a22"/>
      <path id="Path_5535" data-name="Path 5535" d="M14.923,2.369V1.722c0-.37,0-.74,0-1.109A.613.613,0,0,1,15.559,0,.572.572,0,0,1,16.18.61c.005.511,0,1.022,0,1.534v.215c.082,0,.148.009.213.009.486,0,.973,0,1.459,0a.637.637,0,1,1,.035,1.272c-.493,0-.986,0-1.478,0h-.229v.2c0,.493,0,.986,0,1.478a.675.675,0,0,1-.637.682.627.627,0,0,1-.622-.679c0-.553,0-1.107,0-1.686h-.208c-.506,0-1.01.005-1.515,0a.64.64,0,0,1-.621-.842.5.5,0,0,1,.484-.411c.535-.018,1.071-.014,1.606-.02h.253" transform="translate(-3.094 -0.001)" fill="#e21a22"/>
      <path id="Path_5536" data-name="Path 5536" d="M8.991,11.74H5.832a.535.535,0,0,1-.545-.335.626.626,0,0,1,.086-.694c.139-.153.3-.322.545-.158.031.02.084,0,.128,0q2.966,0,5.93,0c.089,0,.176-.065.265-.067a.5.5,0,0,1,.464.253.665.665,0,0,1,.022.671.59.59,0,0,1-.558.329q-1.589,0-3.178,0Z" transform="translate(-1.287 -2.585)" fill="#e21a22"/>
      <path id="Path_5537" data-name="Path 5537" d="M9,16.985c-1.041,0-2.08,0-3.121,0a.608.608,0,0,1-.629-.8.586.586,0,0,1,.485-.446c.095-.006.193.057.289.057q2.992.006,5.983,0c.09,0,.179-.064.269-.064a.533.533,0,0,1,.507.432.64.64,0,0,1-.662.824c-1.041,0-2.08,0-3.121,0" transform="translate(-1.289 -3.878)" fill="#e21a22"/>
      <path id="Path_5538" data-name="Path 5538" d="M7.446,5.236c.517,0,1.034-.006,1.551,0a.633.633,0,0,1,.606.884.6.6,0,0,1-.581.384c-1.053.007-2.105.01-3.157,0a.662.662,0,0,1-.634-.647.687.687,0,0,1,.683-.62c.511,0,1.022,0,1.533,0" transform="translate(-1.29 -1.29)" fill="#e21a22"/>
    </g>
  </g>
</svg>
