<svg xmlns="http://www.w3.org/2000/svg" xmlns:xlink="http://www.w3.org/1999/xlink" width="16.412" height="16.413" viewBox="0 0 16.412 16.413">
  <defs>
    <clipPath id="clip-path">
      <rect id="Rectangle_3564" data-name="Rectangle 3564" width="16.412" height="16.413" transform="translate(0 0)" fill="#e21a22"/>
    </clipPath>
  </defs>
  <g id="Group_9568" data-name="Group 9568" transform="translate(0 0)">
    <g id="Group_9567" data-name="Group 9567" clip-path="url(#clip-path)">
      <path id="Path_4787" data-name="Path 4787" d="M16.412,3.43V11.8a.948.948,0,0,0-.093.353,3.336,3.336,0,0,1-.841,1.648c-.506.535-1.041,1.044-1.559,1.568a3.427,3.427,0,0,1-.846.62,3.158,3.158,0,0,1-1.451.421c-2.57.013-5.139.007-7.708,0a4.291,4.291,0,0,1-.587-.025,3.755,3.755,0,0,1-1.079-.31A3.86,3.86,0,0,1,.5,14.487a3.218,3.218,0,0,1-.5-1.589C-.006,9.81,0,6.723,0,3.635a3.257,3.257,0,0,1,.245-1.17A3.771,3.771,0,0,1,1.511.783,3.872,3.872,0,0,1,2.743.155,6.257,6.257,0,0,0,3.4,0h9.552c.015.043.052.026.081.03a4.105,4.105,0,0,1,1.1.308,3.874,3.874,0,0,1,2.122,2.451,5.592,5.592,0,0,0,.155.641M1.284,8.2h0q0,2.235,0,4.47a2.17,2.17,0,0,0,.117.674A2.516,2.516,0,0,0,2.276,14.6a2.279,2.279,0,0,0,1.371.528c2.237.013,4.475.006,6.713.006.351,0,.344,0,.352-.355a18.75,18.75,0,0,1,.031-1.882,2.467,2.467,0,0,1,.93-1.623,2.532,2.532,0,0,1,1.665-.56c.556,0,1.111,0,1.667,0,.089,0,.129-.009.128-.117-.024-2.316.04-4.632-.035-6.947a2.332,2.332,0,0,0-.6-1.472,2.522,2.522,0,0,0-1.976-.889c-2.879-.01-5.757,0-8.636-.006a2.6,2.6,0,0,0-2.037.959,2.31,2.31,0,0,0-.559,1.41c-.017,1.516-.006,3.033-.006,4.55m13.75,3.807c-.606,0-1.2,0-1.788,0a1.223,1.223,0,0,0-.978.489,1.077,1.077,0,0,0-.269.669c0,.4,0,.805,0,1.208,0,.216,0,.433,0,.66a2.378,2.378,0,0,0,1-.581c.507-.513,1.023-1.017,1.527-1.532a2.174,2.174,0,0,0,.5-.914" fill="#e21a22"/>
      <path id="Path_4788" data-name="Path 4788" d="M8.194,5.064c-1.25,0-2.5-.007-3.749,0a.663.663,0,0,1-.655-.5A.647.647,0,0,1,4.265,3.8a.564.564,0,0,1,.173-.012h7.513a.647.647,0,0,1,.615.374.593.593,0,0,1-.108.7.608.608,0,0,1-.467.213q-1.9,0-3.8,0" fill="#e21a22"/>
      <path id="Path_4789" data-name="Path 4789" d="M8.183,8.846c-1.244,0-2.489-.008-3.733.005a.665.665,0,0,1-.661-.509A.64.64,0,0,1,4.26,7.58a.562.562,0,0,1,.156-.015h7.546a.662.662,0,0,1,.668.641.676.676,0,0,1-.666.644c-1.26-.007-2.521,0-3.781,0" fill="#e21a22"/>
      <path id="Path_4790" data-name="Path 4790" d="M6.3,12.629c-.625,0-1.25-.014-1.874.006a.69.69,0,0,1-.649-.648.681.681,0,0,1,.652-.644c1.249.01,2.5,0,3.748,0a.647.647,0,0,1,.611.378.644.644,0,0,1-.566.9c-.641,0-1.281,0-1.922,0" fill="#e21a22"/>
    </g>
  </g>
</svg>
