<svg id="Group_9791" data-name="Group 9791" xmlns="http://www.w3.org/2000/svg" xmlns:xlink="http://www.w3.org/1999/xlink" width="16.369" height="16.365" viewBox="0 0 16.369 16.365">
  <defs>
    <clipPath id="clip-path">
      <rect id="Rectangle_3918" data-name="Rectangle 3918" width="16.369" height="16.365" fill="#e21a22"/>
    </clipPath>
  </defs>
  <g id="Group_9790" data-name="Group 9790" transform="translate(0 0)" clip-path="url(#clip-path)">
    <path id="Path_9056" data-name="Path 9056" d="M8.2,0A8.182,8.182,0,1,1,0,8.114,8.181,8.181,0,0,1,8.2,0m7.083,8.182a7.091,7.091,0,1,0-7.1,7.092,7.093,7.093,0,0,0,7.1-7.092" transform="translate(0 0)" fill="#e21a22"/>
    <path id="Path_9057" data-name="Path 9057" d="M15.042,12.785a1.684,1.684,0,0,1-1.2,1.605c-.145.055-.353.033-.425.159s-.014.3-.019.452a.542.542,0,0,1-.8.458.519.519,0,0,1-.289-.467c-.005-.154.05-.345-.023-.449s-.269-.1-.412-.154a1.673,1.673,0,0,1-1.2-1.58.545.545,0,0,1,.524-.575.529.529,0,0,1,.568.525.621.621,0,0,0,.413.572,1.649,1.649,0,0,0,1.353,0,.7.7,0,0,0,.178-1.18,2.236,2.236,0,0,0-.767-.388,9.1,9.1,0,0,1-1.185-.455,1.957,1.957,0,0,1-1.015-2.262,1.7,1.7,0,0,1,1.151-1.133c.134-.051.33-.05.4-.145s.017-.284.02-.431a.546.546,0,0,1,1.09-.044c.007.164-.049.367.028.481s.285.1.43.153a1.681,1.681,0,0,1,1.162,1.324.855.855,0,0,1-.019.47.549.549,0,0,1-.588.338.515.515,0,0,1-.457-.438c-.011-.474-.313-.649-.7-.739a1.61,1.61,0,0,0-1.095.106A.7.7,0,0,0,12,10.153a2.216,2.216,0,0,0,.767.386c.313.114.631.214.939.341a1.978,1.978,0,0,1,1.312,1.6c.015.1.016.2.024.3" transform="translate(-4.667 -2.969)" fill="#e21a22"/>
  </g>
</svg>
