<svg xmlns="http://www.w3.org/2000/svg" xmlns:xlink="http://www.w3.org/1999/xlink" width="18.374" height="18.364" viewBox="0 0 18.374 18.364">
  <defs>
    <clipPath id="clip-path">
      <rect id="Rectangle_3917" data-name="Rectangle 3917" width="18.374" height="18.364" transform="translate(-1 -1)" fill="#e21a22"/>
    </clipPath>
  </defs>
  <g id="Group_9789" data-name="Group 9789" transform="translate(1 1)">
    <g id="Group_9788" data-name="Group 9788" transform="translate(0 0)" clip-path="url(#clip-path)">
      <path id="Path_9049" data-name="Path 9049" d="M10.268,0c.187.137.422.175.61.317a1.626,1.626,0,0,1,.7,1.255c.07,1.388.013,2.777.029,4.165,0,.263-.119.418-.312.432-.261.02-.377-.081-.379-.389q-.017-1.99,0-3.979A1.06,1.06,0,0,0,10.088.71,1.311,1.311,0,0,0,9.772.687c-2.653,0-5.306,0-7.959,0A1.062,1.062,0,0,0,.7,1.525a1.007,1.007,0,0,0,0,.249c0,3.59,0,7.181-.007,10.771a1.08,1.08,0,0,0,.8,1.086,1.147,1.147,0,0,0,.343,0H6.387c.286,0,.442.138.429.375a.355.355,0,0,1-.3.309c-.048,0-.1,0-.144,0H1.526a1.345,1.345,0,0,1-.532-.149,1.729,1.729,0,0,1-.983-1.263,1.266,1.266,0,0,1,0-.3q0-5.537,0-11.074A1.425,1.425,0,0,1,.3.728,1.588,1.588,0,0,1,1.088.112C1.2.073,1.324.091,1.414,0Z" transform="translate(0 0)" fill="#e21a22" stroke="#e21a22" stroke-width="0.4"/>
      <path id="Path_9050" data-name="Path 9050" d="M46.5,42.514a3.48,3.48,0,0,0-.145.643,4.453,4.453,0,0,1-.8,1.619,4.314,4.314,0,0,1-1.21,1.065,4.534,4.534,0,0,1-1.242.512,4.636,4.636,0,0,1-1.589.1,4.135,4.135,0,0,1-1.548-.489,4.41,4.41,0,0,1-1.779-1.754,4,4,0,0,1-.526-1.59,4.494,4.494,0,0,1,.008-1.17,4.75,4.75,0,0,1,.316-1.145,4.333,4.333,0,0,1,.553-.953,4.81,4.81,0,0,1,1.037-.983,4.135,4.135,0,0,1,1.455-.635,3.378,3.378,0,0,1,1.153-.105,7.631,7.631,0,0,1,.96.124,4.386,4.386,0,0,1,1.709.863,4.335,4.335,0,0,1,1.556,2.625,1.011,1.011,0,0,0,.091.35Zm-8.192-.391a3.766,3.766,0,0,0,1.06,2.518A3.58,3.58,0,0,0,41.882,45.8a3.679,3.679,0,0,0,3.034-1.33,3.6,3.6,0,0,0,.885-2.678,3.749,3.749,0,0,0-7.488.334" transform="translate(-30.131 -30.112)" fill="#e21a22" stroke="#e21a22" stroke-width="0.4"/>
      <path id="Path_9051" data-name="Path 9051" d="M18.08,27.359c.393,0,.789-.025,1.18.006a1.628,1.628,0,0,1,1.242.7,1.943,1.943,0,0,1,.334,1.18,1.128,1.128,0,0,1-.054.637.351.351,0,0,1-.4.191.382.382,0,0,1-.24-.353c0-.213,0-.426,0-.639a1.03,1.03,0,0,0-.781-1.007,1.67,1.67,0,0,0-.357-.04c-.628,0-1.257-.009-1.885,0a1,1,0,0,0-1.047.859,5.219,5.219,0,0,0-.011.782.356.356,0,0,1-.222.373c-.221.085-.437,0-.448-.228a3.752,3.752,0,0,1,.044-1.227,1.691,1.691,0,0,1,1.7-1.247h.942v.013" transform="translate(-12.302 -21.895)" fill="#e21a22"/>
      <path id="Path_9052" data-name="Path 9052" d="M23.562,12.979a1.349,1.349,0,0,1-1.371-1.334,1.37,1.37,0,1,1,2.741-.015,1.35,1.35,0,0,1-1.37,1.348m-.005-2.014a.639.639,0,0,0-.667.667.7.7,0,0,0,.609.677.713.713,0,0,0,.741-.675.662.662,0,0,0-.683-.669" transform="translate(-17.768 -8.217)" fill="#e21a22"/>
      <path id="Path_9053" data-name="Path 9053" d="M12.656,48.557H10.643a.3.3,0,0,1-.337-.289c-.013-.241.086-.368.3-.391a.9.9,0,0,1,.1-.006q1.981,0,3.962,0a.369.369,0,0,1,.4.277.348.348,0,0,1-.349.407q-1.031,0-2.061,0" transform="translate(-8.25 -38.329)" fill="#e21a22"/>
      <path id="Path_9054" data-name="Path 9054" d="M12.337,58.812H10.628a.294.294,0,0,1-.323-.287c-.013-.234.083-.366.287-.391a1.148,1.148,0,0,1,.143-.007c1.076,0,2.151,0,3.226,0a.4.4,0,0,1,.4.207.337.337,0,0,1-.313.48c-.57,0-1.139,0-1.709,0" transform="translate(-8.25 -46.539)" fill="#e21a22"/>
      <path id="Path_9055" data-name="Path 9055" d="M52.266,51.648a.323.323,0,0,1-.1.24c-.314.363-.633.721-.949,1.082-.334.383-.663.77-1,1.152-.153.175-.313.345-.476.511a.313.313,0,0,1-.447-.017q-.688-.679-1.367-1.366a.313.313,0,0,1,.017-.493.353.353,0,0,1,.477.029c.32.32.642.638.958.962.084.087.141.106.228,0,.355-.415.714-.825,1.074-1.236.253-.289.509-.575.764-.862.073-.083.142-.169.218-.249a.332.332,0,0,1,.4-.068.336.336,0,0,1,.2.311" transform="translate(-38.289 -41.074)" fill="#e21a22"/>
    </g>
  </g>
</svg>
