<svg xmlns="http://www.w3.org/2000/svg" xmlns:xlink="http://www.w3.org/1999/xlink" width="15.315" height="17.028" viewBox="0 0 15.315 17.028">
  <defs>
    <clipPath id="clip-path">
      <rect id="Rectangle_3914" data-name="Rectangle 3914" width="15.315" height="17.028" fill="#e21a22"/>
    </clipPath>
  </defs>
  <g id="Group_9783" data-name="Group 9783" transform="translate(0 0)">
    <g id="Group_9782" data-name="Group 9782" transform="translate(0 0)" clip-path="url(#clip-path)">
      <path id="Path_9029" data-name="Path 9029" d="M.007,8.512c0-1.555-.02-3.11.009-4.664A3.676,3.676,0,0,1,.724,1.812,4.088,4.088,0,0,1,2.269.453,4.319,4.319,0,0,1,4.245,0Q6.792,0,9.34,0a2.6,2.6,0,0,1,1.72.535,1.822,1.822,0,0,1,.137.12c1.154,1.151,2.314,2.3,3.456,3.459a2.155,2.155,0,0,1,.619,1.477c.081,2.4.023,4.8.031,7.194a4.161,4.161,0,0,1-.918,2.689,4.223,4.223,0,0,1-2.128,1.41,3.5,3.5,0,0,1-1.011.142c-2.483-.008-4.965.005-7.448-.011a3.393,3.393,0,0,1-1.65-.5A4.165,4.165,0,0,1,.163,14.012,3.232,3.232,0,0,1,.009,13.1c0-1.528,0-3.055,0-4.583M12.977,4.3,10.933,2.28V3.312a1.065,1.065,0,0,0,.844,1.021,6.307,6.307,0,0,0,1.23.014c.025-.039.009-.05-.031-.046M7.6,15.714c1.132,0,2.264,0,3.4,0a4.938,4.938,0,0,0,.84-.086,2.6,2.6,0,0,0,.732-.327,2.591,2.591,0,0,0,1.068-1.1,3.151,3.151,0,0,0,.341-1.583c.008-2.257,0-4.514.006-6.771,0-.139-.045-.168-.174-.167-.573.007-1.146,0-1.719,0a2.118,2.118,0,0,1-.487-.012,2.511,2.511,0,0,1-1.561-1.015A2.033,2.033,0,0,1,9.631,3.6c-.024-.694-.013-1.391,0-2.086,0-.169-.037-.211-.209-.211-1.609.007-3.219,0-4.828.007a3.612,3.612,0,0,0-1.784.354A2.786,2.786,0,0,0,1.6,2.924a3.224,3.224,0,0,0-.277,1.47c.016,2.775.008,5.551.008,8.326,0,.157.011.315.008.472a2.269,2.269,0,0,0,.253.868,2.53,2.53,0,0,0,.689.923,2.574,2.574,0,0,0,1.758.727c1.186.016,2.373,0,3.56,0" transform="translate(0 0)" fill="#e21a22"/>
      <path id="Path_9030" data-name="Path 9030" d="M27.22,9.057l-.03-.046c.039,0,.055.007.03.046" transform="translate(-14.213 -4.71)" fill="#e21a22"/>
      <path id="Path_9031" data-name="Path 9031" d="M14.044,15.07c0,.933,0,1.811,0,2.689a.684.684,0,0,1-.407.7.627.627,0,0,1-.9-.557c0-.927,0-1.854,0-2.792-.125.01-.168.115-.24.175-.158.132-.263.328-.479.388-.037.01-.061.022-.059.064.006.093-.078.108-.132.13a.829.829,0,0,1-.772-.3.628.628,0,0,1,.065-.742q.926-.939,1.865-1.866a.759.759,0,0,1,.873.062c.478.48.955.961,1.441,1.434.1.1.189.219.3.318a.629.629,0,0,1,.142.693.613.613,0,0,1-.5.413.706.706,0,0,1-.641-.237c-.164-.182-.341-.351-.549-.564" transform="translate(-5.73 -6.712)" fill="#e21a22"/>
    </g>
  </g>
</svg>
