<svg xmlns="http://www.w3.org/2000/svg" xmlns:xlink="http://www.w3.org/1999/xlink" width="19.872" height="19.028" viewBox="0 0 19.872 19.028">
  <defs>
    <clipPath id="clip-path">
      <rect id="Rectangle_3916" data-name="Rectangle 3916" width="19.872" height="19.028" transform="translate(-1 -1)" fill="#e21a22"/>
    </clipPath>
  </defs>
  <g id="Group_9787" data-name="Group 9787" transform="translate(1 1)">
    <g id="Group_9786" data-name="Group 9786" transform="translate(0 0)" clip-path="url(#clip-path)">
      <path id="Path_9040" data-name="Path 9040" d="M17.873,13.031a.875.875,0,0,1-.436.529c-.287.133-.409,0-.555.317-.181.393-.061.364.089.729a.84.84,0,0,1-.241.935c-.355.4-.8.8-1.348.506-.254-.134-.345-.215-.626-.051s-.205.354-.342.622c-.238.464-.886.425-1.323.392a.856.856,0,0,1-.651-.3c-.182-.229-.116-.5-.335-.675-.466-.368-.8.238-1.294.106-.547-.149-1.235-.93-1.013-1.517.123-.327.258-.3.138-.636-.091-.257-.12-.319-.392-.358a16.4,16.4,0,0,0-2.221,0c-.231,0-.6.066-.759-.16a.364.364,0,0,1,.133-.525,1.77,1.77,0,0,1,.8-.058,4.109,4.109,0,0,0,1.234,0c.354-.153.044-.908.372-1.248s.968-.168.879-.848c-.038-.289-.293-.43-.25-.755a1.262,1.262,0,0,1,.455-.694,1.273,1.273,0,0,1,.7-.461c.33-.043.455.206.726.261a.814.814,0,0,0,.5-.172c.192-.162.136-.379.244-.584.264-.505,1.256-.494,1.7-.284.42.2.317.682.637.9.3.2.442.1.72-.034.364-.171.46-.031.463-.5.005-.685,0-1.371,0-2.057a2.948,2.948,0,0,0,0-.885c-.1-.233-.389-.14-.631-.14H1.437c-.188,0-.509-.074-.639.08s-.01.777-.01.96q0,1.154,0,2.309t0,2.309c0,.593-.077,1.344.5,1.716a1.867,1.867,0,0,0,1.042.13,11.394,11.394,0,0,1,1.315,0c.256.029.561.13.48.468s-.433.27-.694.275a5.93,5.93,0,0,1-2.385-.14,1.84,1.84,0,0,1-.937-1.235,10.556,10.556,0,0,1-.062-2.5V7.174q0-1.291,0-2.583,0-.669,0-1.339A4.544,4.544,0,0,0,.024,2V1.689c.073-.213.107-.437.2-.646A1.733,1.733,0,0,1,1.767,0c4.388.014,8.776.008,13.164.005a1.534,1.534,0,0,1,1.226.583,2.079,2.079,0,0,1,.471,1.384q0,3.608,0,7.217a.432.432,0,0,0,.135.337.787.787,0,0,1,.041,1.16c-.049.057-.092.116-.038.184.126.156.065.42.3.514a.063.063,0,0,0,.017,0,.852.852,0,0,1,.793.6ZM8.34,4.635q3.662,0,7.323,0c.166,0,.221-.047.219-.215-.008-.852,0-1.7,0-2.557A1.05,1.05,0,0,0,14.762.746H7.248c-1.8,0-3.606,0-5.41,0a.9.9,0,0,0-.7.25A1.117,1.117,0,0,0,.8,1.755C.791,2.635.792,3.517.79,4.4c0,.236,0,.236.245.237H8.34m4.673,11.34c0,.323,0,.323.334.3.212-.015.308.015.405-.166.117-.217-.044-.424.193-.61a2.044,2.044,0,0,1,.521-.179c.16-.062.3-.154.459-.222a.45.45,0,0,1,.471-.024c.113.055.195.245.317.273.172.039.532-.253.534-.44,0-.294-.415-.357-.34-.727a4.6,4.6,0,0,1,.289-.6,3.188,3.188,0,0,1,.143-.444c.174-.3.365-.136.619-.263.182-.091.321-.557.125-.724-.105-.09-.379.016-.511-.038-.23-.1-.244-.294-.317-.511-.092-.272-.439-.7-.363-.986.061-.225.392-.319.333-.568-.026-.11-.341-.426-.469-.413-.2.021-.294.356-.524.385-.284.036-.661-.277-.927-.369-.221-.077-.428-.092-.527-.326-.159-.376.14-.57-.373-.564-.612.008-.2.376-.517.717-.168.179-.532.206-.748.3-.264.12-.469.327-.759.183-.273-.136-.266-.4-.565-.187-.215.152-.328.286-.21.5.139.255.336.277.248.6a8.768,8.768,0,0,1-.376.875c-.113.281-.186.347-.493.377-.1.009-.261-.04-.333.046a1,1,0,0,0-.014.512c.069.168.077.155.264.19.332.063.425.041.57.367a5.343,5.343,0,0,1,.4.944c.091.5-.753.684-.022,1.088.305.169.317-.15.6-.251.253-.091.472.115.691.215.436.2.869.158.869.727" transform="translate(0 0)" fill="#e21a22" stroke="#e21a22" stroke-width="0.2"/>
      <path id="Path_9041" data-name="Path 9041" d="M2.65,11.452c-.028-.333.4-.666.6-.886s.415-.6.691-.669a.366.366,0,0,1,.425.506c-.13.343-.55.553-.734.858-.14.229-.117.212.062.433.115.144.249.275.369.415.174.2.467.458.271.74-.425.61-1.337-.816-1.581-1.093a.4.4,0,0,1-.1-.3" transform="translate(-0.618 -2.308)" fill="#e21a22"/>
      <path id="Path_9042" data-name="Path 9042" d="M10.808,11.452c.021.325-.414.663-.61.883s-.5.709-.816.675c-.964-.1.392-1.2.481-1.416.228-.556-1.084-.912-.767-1.513.373-.7,1.358.77,1.577,1.018a.491.491,0,0,1,.134.353" transform="translate(-2.11 -2.309)" fill="#e21a22"/>
      <path id="Path_9043" data-name="Path 9043" d="M6.437,13.183a.36.36,0,0,1-.368-.451q.339-1.443.688-2.883a.372.372,0,1,1,.717.192q-.332,1.4-.666,2.8c-.057.241-.168.341-.37.343" transform="translate(-1.414 -2.227)" fill="#e21a22"/>
      <path id="Path_9044" data-name="Path 9044" d="M6.823,17.565a.364.364,0,0,1-.25-.621.377.377,0,0,1,.638.26.368.368,0,0,1-.388.361" transform="translate(-1.51 -3.932)" fill="#e21a22"/>
      <path id="Path_9045" data-name="Path 9045" d="M14.88,4.344c-.974,0-2.751.271-2.745-1.2s1.777-1.19,2.743-1.19,2.744-.273,2.758,1.2-1.8,1.193-2.756,1.193M14.9,2.707v0c-.438,0-2.077-.293-2.005.489.062.675,1.469.4,1.9.4.483,0,.967.009,1.45,0,.29-.005.629-.051.644-.424.029-.746-1.561-.465-1.991-.465" transform="translate(-2.833 -0.451)" fill="#e21a22"/>
      <path id="Path_9046" data-name="Path 9046" d="M3.954,4.354a1.2,1.2,0,0,1-.806-2.078,1.219,1.219,0,0,1,2.015.883,1.2,1.2,0,0,1-1.21,1.195m0-.748a.448.448,0,0,0,.457-.446.458.458,0,0,0-.77-.315.444.444,0,0,0,.313.761" transform="translate(-0.646 -0.461)" fill="#e21a22"/>
      <path id="Path_9047" data-name="Path 9047" d="M9.128,3.172A1.193,1.193,0,1,1,7.94,1.962a1.174,1.174,0,0,1,1.187,1.21M7.949,3.6A.457.457,0,0,0,8.4,3.164a.465.465,0,0,0-.778-.323.452.452,0,0,0,.33.761" transform="translate(-1.577 -0.458)" fill="#e21a22"/>
      <path id="Path_9048" data-name="Path 9048" d="M16.81,17.833a2.167,2.167,0,1,1,2.167-2.145,2.185,2.185,0,0,1-2.167,2.145m-.011-.749a1.41,1.41,0,0,0,1.43-1.376,1.415,1.415,0,1,0-1.43,1.376" transform="translate(-3.423 -3.156)" fill="#e21a22"/>
    </g>
  </g>
</svg>
