<svg xmlns="http://www.w3.org/2000/svg" xmlns:xlink="http://www.w3.org/1999/xlink" width="15.027" height="15" viewBox="0 0 15.027 15">
  <defs>
    <clipPath id="clip-path">
      <rect id="Rectangle_4059" data-name="Rectangle 4059" width="15.027" height="15" fill="#fff"/>
    </clipPath>
  </defs>
  <g id="Group_9995" data-name="Group 9995" transform="translate(0 -0.001)">
    <g id="Group_9994" data-name="Group 9994" transform="translate(0 0.001)" clip-path="url(#clip-path)">
      <path id="Path_9205" data-name="Path 9205" d="M15.025,6.457c-.009.01-.022.019-.026.031a.581.581,0,0,1-.9.306,5.019,5.019,0,0,0-1.038-.529,4.406,4.406,0,0,0-2.162-.2,4.348,4.348,0,0,0-2.3,1.1.336.336,0,0,0-.116.224,2.88,2.88,0,0,1-.846,1.726c-.089.089-.085.116.033.163a5.155,5.155,0,0,1,.987.535.592.592,0,0,1,.2.84.585.585,0,0,1-.838.148,4.49,4.49,0,0,0-5.208.1,4.283,4.283,0,0,0-1.57,2.083.6.6,0,0,0,.6.86q2.48,0,4.959,0a.606.606,0,0,1,.571.283.588.588,0,0,1-.178.8c-.03.02-.075.021-.089.065H1.349a.8.8,0,0,0-.24-.091,1.766,1.766,0,0,1-1-2.247A5.588,5.588,0,0,1,3.324,9.278c.048-.021.1-.041.16-.067a3.749,3.749,0,0,1-.5-.6,2.992,2.992,0,1,1,5.26-2.819c.05.107.085.082.156.033a4.928,4.928,0,0,1,1.051-.569c.1-.04.1-.067.028-.141a2.967,2.967,0,0,1-.794-1.392,2.995,2.995,0,1,1,5.072,1.337,2.046,2.046,0,0,1-.173.141,6.554,6.554,0,0,1,1,.507,1.009,1.009,0,0,1,.44.46ZM13.41,2.988A1.818,1.818,0,1,0,11.6,4.813,1.832,1.832,0,0,0,13.41,2.988M5.524,5.195A1.817,1.817,0,1,0,7.335,7.017,1.826,1.826,0,0,0,5.524,5.195" transform="translate(0 0)" fill="#fff"/>
      <path id="Path_9206" data-name="Path 9206" d="M17.588,20.587a.745.745,0,0,1-.357-.752c.019-.434,0-.869.008-1.3,0-.1-.029-.119-.122-.119q-.748.007-1.5,0a.584.584,0,0,1-.584-.511.59.59,0,0,1,.434-.645.728.728,0,0,1,.217-.018c.474,0,.948,0,1.422,0,.1,0,.128-.027.128-.129-.006-.479,0-.958,0-1.437a.588.588,0,1,1,1.173-.008c0,.484,0,.968,0,1.452,0,.095.023.122.12.121.459-.005.919,0,1.378,0a.617.617,0,0,1,.705.471v.265a.7.7,0,0,1-.763.444c-.439-.019-.88,0-1.319-.007-.094,0-.123.021-.121.119.006.435-.011.87.007,1.3a.742.742,0,0,1-.357.751Z" transform="translate(-5.586 -5.588)" fill="#fff"/>
    </g>
  </g>
</svg>
