<svg xmlns="http://www.w3.org/2000/svg" xmlns:xlink="http://www.w3.org/1999/xlink" width="16.05" height="17.449" viewBox="0 0 16.05 17.449">
  <defs>
    <clipPath id="clip-path">
      <rect id="Rectangle_3990" data-name="Rectangle 3990" width="16.05" height="17.449" fill="#e21a22"/>
    </clipPath>
  </defs>
  <g id="Group_9843" data-name="Group 9843" transform="translate(0 0)">
    <g id="Group_9842" data-name="Group 9842" transform="translate(0 0)" clip-path="url(#clip-path)">
      <path id="Path_9084" data-name="Path 9084" d="M.027,9.518c0-2.346.005-4.692-.01-7.039a2.3,2.3,0,0,1,.014-.656,2.5,2.5,0,0,1,.261-.667A2.539,2.539,0,0,1,1.342.2,2.067,2.067,0,0,1,2.2.009C6.07,0,9.944-.012,13.818.016A2.187,2.187,0,0,1,16,1.839a3.007,3.007,0,0,1,.046.682c0,.885-.006,1.77,0,2.655a1.564,1.564,0,0,1-.248.87,1.345,1.345,0,0,1-.742.557,1.115,1.115,0,0,1-.33.056q-.89.009-1.782,0c-.125,0-.188.018-.123.161A.445.445,0,0,1,12.837,7q0,4.564,0,9.129a1.686,1.686,0,0,1-.113.767.852.852,0,0,1-.445.354c-.383.171-.677-.035-.978-.218-.592-.359-1.18-.722-1.772-1.079a.335.335,0,0,0-.38.006c-.725.44-1.464.859-2.182,1.314a.969.969,0,0,1-1.131-.021c-.719-.457-1.459-.885-2.19-1.322a.259.259,0,0,0-.284.006c-.678.41-1.354.826-2.037,1.229a.814.814,0,0,1-1.264-.422,1.113,1.113,0,0,1-.031-.409q0-3.41,0-6.82m11.538,6.243c.02.033.042.087.085.06s.024-.091.015-.14c0-.018,0-.037,0-.054q0-6.7,0-13.405c0-.068-.01-.137-.01-.2a2.162,2.162,0,0,1,.224-.849c-2.536,0-5.058,0-7.58,0-.725,0-1.45-.041-2.174.032a.98.98,0,0,0-.719.4,1.466,1.466,0,0,0-.225.951C1.2,6.91,1.2,11.264,1.2,15.617c0,.054,0,.109,0,.164s.051.069.067.033c.047-.108.157-.083.231-.129.324-.2.648-.4.973-.6A1.88,1.88,0,0,1,3.525,14.7a1.818,1.818,0,0,1,.9.32c.613.387,1.244.744,1.862,1.123a.222.222,0,0,0,.261.006c.688-.415,1.369-.841,2.064-1.244A1.4,1.4,0,0,1,9.9,14.839c.365.154.681.4,1.028.588a2.139,2.139,0,0,0,.638.334M12.837,3.847c0,.5.006.994,0,1.49,0,.143.042.166.172.165.5-.008,1.006,0,1.509,0,.307,0,.364-.056.364-.364,0-.915,0-1.83,0-2.744a1.159,1.159,0,0,0-.39-.937.991.991,0,0,0-1.51.165,1.192,1.192,0,0,0-.149.739c.028.5.008.993.008,1.49" transform="translate(0 0)" fill="#e21a22"/>
      <path id="Path_9085" data-name="Path 9085" d="M13.215,18a.106.106,0,0,1,.1-.08c.009.049.034.109-.015.14s-.065-.027-.085-.06" transform="translate(-1.65 -2.237)" fill="#e21a22"/>
      <path id="Path_9086" data-name="Path 9086" d="M6.457,9.756c-.757,0-1.514-.006-2.271,0a.605.605,0,0,1-.655-.576.593.593,0,0,1,.641-.608c1.272,0,2.543,0,3.815,0a6.058,6.058,0,0,1,.618,0c.537.056.662.088.767.653.024.13-.083.232-.159.318a.592.592,0,0,1-.466.21c-.763-.008-1.526,0-2.289,0" transform="translate(-0.441 -1.07)" fill="#e21a22"/>
      <path id="Path_9087" data-name="Path 9087" d="M6.424,6.2c-.764,0-1.527-.008-2.291,0a.61.61,0,0,1-.6-.555A.573.573,0,0,1,4.1,5.03q2.327-.008,4.655,0a.581.581,0,0,1,.381,1.033.546.546,0,0,1-.369.137q-1.172,0-2.345,0" transform="translate(-0.441 -0.627)" fill="#e21a22"/>
      <path id="Path_9088" data-name="Path 9088" d="M6.436,13.39H4.09a.581.581,0,0,1,0-1.162c1.539,0,3.08-.015,4.619.005.442.005.58.142.634.558a.54.54,0,0,1-.524.6c-.794.009-1.588,0-2.382,0" transform="translate(-0.441 -1.526)" fill="#e21a22"/>
    </g>
  </g>
</svg>
