<svg xmlns="http://www.w3.org/2000/svg" xmlns:xlink="http://www.w3.org/1999/xlink" width="17.817" height="18.412" viewBox="0 0 17.817 18.412">
  <defs>
    <clipPath id="clip-path">
      <rect id="Rectangle_4213" data-name="Rectangle 4213" width="17.817" height="18.412" transform="translate(-1 -1)" fill="none"/>
    </clipPath>
  </defs>
  <g id="Group_10270" data-name="Group 10270" transform="translate(1 1)">
    <g id="Group_10269" data-name="Group 10269" transform="translate(0 0)" clip-path="url(#clip-path)">
      <path id="Path_9616" data-name="Path 9616" d="M0,8.188Q0,5.507,0,2.825A2.778,2.778,0,0,1,2.152.077,2.966,2.966,0,0,1,2.867,0Q7.913,0,12.959,0a2.776,2.776,0,0,1,2.8,2.251,2.685,2.685,0,0,1,.054.58q0,5.373,0,10.745a2.78,2.78,0,0,1-2.822,2.832q-5.089.005-10.178,0A2.782,2.782,0,0,1,.047,14.134,2.9,2.9,0,0,1,0,13.57q0-2.691,0-5.382m1,0q0,2.664,0,5.329a2.453,2.453,0,0,0,.053.51A1.815,1.815,0,0,0,2.9,15.411c3.341-.015,6.681-.005,10.022-.006a2.127,2.127,0,0,0,.445-.029,1.781,1.781,0,0,0,1.456-1.8q0-5.372,0-10.744a2.046,2.046,0,0,0-.051-.443A1.809,1.809,0,0,0,12.946,1c-3.357.012-6.715,0-10.073.005a2.031,2.031,0,0,0-.428.029A1.786,1.786,0,0,0,1,2.845q0,2.673,0,5.346" transform="translate(0 0)" fill="#e21a22" stroke="#e21a22" stroke-width="0.5"/>
      <path id="Path_9617" data-name="Path 9617" d="M8.49,4.821c-.813,0-1.626,0-2.439,0a.5.5,0,0,1-.541-.658.462.462,0,0,1,.38-.329A1.217,1.217,0,0,1,6.1,3.817q2.4,0,4.81,0c.331,0,.512.114.589.366a.492.492,0,0,1-.343.615,1.063,1.063,0,0,1-.255.024q-1.2,0-2.405,0" transform="translate(-0.591 -0.411)" fill="#e21a22"/>
      <path id="Path_9618" data-name="Path 9618" d="M6.122,13.84H3.768a.655.655,0,0,1-.378-.088.5.5,0,0,1-.22-.5.494.494,0,0,1,.4-.4,1.124,1.124,0,0,1,.205-.017q2.362,0,4.726,0a.8.8,0,0,1,.287.04.508.508,0,0,1,.318.5.5.5,0,0,1-.391.443,1.2,1.2,0,0,1-.239.021q-1.178,0-2.354,0" transform="translate(-0.341 -1.384)" fill="#e21a22"/>
      <path id="Path_9619" data-name="Path 9619" d="M6.134,8.465H8.557a.5.5,0,0,1,.55.485.507.507,0,0,1-.548.51H3.712a.507.507,0,0,1-.549-.509.5.5,0,0,1,.548-.487H6.134" transform="translate(-0.341 -0.912)" fill="#e21a22"/>
      <path id="Path_9620" data-name="Path 9620" d="M14.217,8.332a.529.529,0,0,1-.2.411c-.445.36-.889.721-1.339,1.075a.487.487,0,0,1-.737-.093c-.169-.21-.336-.42-.5-.634a.5.5,0,0,1,.075-.729.492.492,0,0,1,.711.115c.212.258.211.257.471.045.24-.194.479-.391.724-.578a.464.464,0,0,1,.532-.037.5.5,0,0,1,.263.424" transform="translate(-1.22 -0.845)" fill="#e21a22"/>
      <path id="Path_9621" data-name="Path 9621" d="M11.32,13.116a.466.466,0,0,1,.29-.429.482.482,0,0,1,.516.063.767.767,0,0,1,.086.085c.081.086.128.253.234.249s.191-.132.285-.208c.21-.168.418-.338.628-.507a.51.51,0,0,1,.747.04.5.5,0,0,1-.108.725q-.65.535-1.309,1.058a.491.491,0,0,1-.741-.08c-.183-.22-.356-.448-.532-.674a.477.477,0,0,1-.1-.322" transform="translate(-1.221 -1.318)" fill="#e21a22"/>
    </g>
  </g>
</svg>
