<svg xmlns="http://www.w3.org/2000/svg" xmlns:xlink="http://www.w3.org/1999/xlink" width="16" height="15.984" viewBox="0 0 16 15.984">
  <defs>
    <clipPath id="clip-path">
      <rect id="Rectangle_4056" data-name="Rectangle 4056" width="16" height="15.984" fill="#fff"/>
    </clipPath>
  </defs>
  <g id="Group_9989" data-name="Group 9989" transform="translate(0 0)">
    <g id="Group_9988" data-name="Group 9988" transform="translate(0 0)" clip-path="url(#clip-path)">
      <path id="Path_9192" data-name="Path 9192" d="M16.076,13.566a2.009,2.009,0,0,1,.026-.443.569.569,0,0,1,.572-.415.553.553,0,0,1,.518.5c.018.231.014.464.009.7a.131.131,0,0,0,.118.154,2.086,2.086,0,0,1,.667.28c.082.053.121.022.174-.032.141-.145.284-.29.431-.431a.558.558,0,0,1,.808-.02.566.566,0,0,1-.023.822c-.138.141-.275.283-.419.417a.126.126,0,0,0-.028.19,2.161,2.161,0,0,1,.276.67.109.109,0,0,0,.131.1c.2,0,.406,0,.609,0a.571.571,0,0,1,.6.565.56.56,0,0,1-.584.56c-.2.006-.394,0-.592,0-.092,0-.145.014-.169.122a2.063,2.063,0,0,1-.273.652.125.125,0,0,0,.028.19c.152.143.3.291.444.443a.559.559,0,1,1-.8.786c-.147-.14-.293-.282-.43-.431-.066-.071-.116-.088-.2-.032a2.063,2.063,0,0,1-.653.271c-.1.023-.118.068-.116.156,0,.2.005.394,0,.592a.562.562,0,0,1-.567.6.573.573,0,0,1-.559-.606c0-.192,0-.383,0-.575,0-.095-.018-.141-.123-.165A2.089,2.089,0,0,1,15.3,18.9a.116.116,0,0,0-.176.021c-.143.152-.291.3-.442.444a.561.561,0,1,1-.794-.791c.144-.152.293-.3.444-.443a.116.116,0,0,0,.026-.175,2.128,2.128,0,0,1-.278-.668c-.021-.088-.067-.116-.158-.113-.2.008-.395.006-.592,0a.564.564,0,1,1,.011-1.125c.2,0,.395,0,.592,0,.082,0,.125-.02.145-.1a2.237,2.237,0,0,1,.285-.684.108.108,0,0,0-.024-.161c-.151-.144-.3-.292-.444-.442a.56.56,0,1,1,.794-.788c.146.141.293.282.43.431a.125.125,0,0,0,.189.023,2.111,2.111,0,0,1,.637-.266c.1-.023.145-.067.132-.176a2.885,2.885,0,0,1,0-.32m.571,1.534a1.519,1.519,0,0,0-1.53,1.575,1.536,1.536,0,0,0,1.545,1.462,1.519,1.519,0,0,0-.014-3.038" transform="translate(-4.545 -4.536)" fill="#fff"/>
      <path id="Path_9193" data-name="Path 9193" d="M9.612,0a4.092,4.092,0,1,1-4.1,3.973A4.1,4.1,0,0,1,9.612,0m2.959,4.09A2.97,2.97,0,1,0,9.614,7.057a2.96,2.96,0,0,0,2.957-2.966" transform="translate(-1.967 0)" fill="#fff"/>
      <path id="Path_9194" data-name="Path 9194" d="M4.389,20.144c-1.015,0-2.031,0-3.047,0a1.259,1.259,0,0,1-1.291-.972.237.237,0,0,1-.015-.05,8.182,8.182,0,0,1,.016-1.7,3.039,3.039,0,0,1,1.231-1.911A7.455,7.455,0,0,1,3.93,14.215a13.1,13.1,0,0,1,3.635-.5.565.565,0,1,1,.01,1.123,11.6,11.6,0,0,0-3.87.629,5.839,5.839,0,0,0-1.8.984,1.836,1.836,0,0,0-.742,1.138,7.439,7.439,0,0,0-.019.974c0,.516-.053.462.467.462q2.986,0,5.972,0a.563.563,0,0,1,.605.653.542.542,0,0,1-.472.461,1.747,1.747,0,0,1-.209.008H4.389" transform="translate(0 -4.895)" fill="#fff"/>
    </g>
  </g>
</svg>
