<svg xmlns="http://www.w3.org/2000/svg" xmlns:xlink="http://www.w3.org/1999/xlink" width="22.827" height="20.508" viewBox="0 0 22.827 20.508">
  <defs>
    <clipPath id="clip-path">
      <rect id="Rectangle_4115" data-name="Rectangle 4115" width="22.827" height="20.508" transform="translate(0 0)" fill="#faf8f8"/>
    </clipPath>
  </defs>
  <g id="Group_10130" data-name="Group 10130" transform="translate(0 0)">
    <g id="Group_10129" data-name="Group 10129" clip-path="url(#clip-path)">
      <path id="Path_9278" data-name="Path 9278" d="M10.265,10.762c-.414.408-.79.779-1.168,1.149a1.8,1.8,0,0,1-.832.595,1.166,1.166,0,0,1-1.22-.457,1.136,1.136,0,0,1-.017-1.277,2.134,2.134,0,0,1,.261-.3Q8.92,8.835,10.552,7.2a1.157,1.157,0,0,1,1.688-.028q1.7,1.683,3.38,3.379a1.147,1.147,0,0,1-.625,1.973,1.131,1.131,0,0,1-1.014-.36Q13.293,11.48,12.6,10.8c-.07.071-.036.155-.036.229,0,1.965.013,3.93-.009,5.894a1.211,1.211,0,0,0,1.3,1.3c1.416-.035,2.834-.045,4.249,0a2.337,2.337,0,0,0,2.43-2.422c-.023-2.676,0-5.352-.007-8.029,0-1.1.028-2.206-.019-3.306A2.206,2.206,0,0,0,18.2,2.3Q12,2.3,5.8,2.3a8.479,8.479,0,0,0-1.759.056A2.247,2.247,0,0,0,2.314,4.349c-.01.133-.018.266-.018.4q0,5.508,0,11.016A2.3,2.3,0,0,0,3.41,17.892a2.09,2.09,0,0,0,1.112.317c.775,0,1.55-.006,2.325,0a1.145,1.145,0,0,1,.271,2.258,1.227,1.227,0,0,1-.291.026c-.793,0-1.586.005-2.378,0A4.562,4.562,0,0,1,.076,16.759,5.682,5.682,0,0,1,0,15.831Q0,10.257,0,4.682A4.544,4.544,0,0,1,3.419.155,4.443,4.443,0,0,1,4.579.011C9.1.014,13.613.044,18.13,0a4.611,4.611,0,0,1,4.692,4.595c0,3.769.015,7.539-.005,11.309a4.513,4.513,0,0,1-3.668,4.51,3.758,3.758,0,0,1-.821.085c-1.514,0-3.03-.033-4.543.008a3.461,3.461,0,0,1-3.523-3.492c.013-1.974,0-3.948,0-5.922v-.331" fill="#faf8f8"/>
    </g>
  </g>
</svg>
