<svg xmlns="http://www.w3.org/2000/svg" xmlns:xlink="http://www.w3.org/1999/xlink" width="16.678" height="16.696" viewBox="0 0 16.678 16.696">
  <defs>
    <clipPath id="clip-path">
      <rect id="Rectangle_4075" data-name="Rectangle 4075" width="16.678" height="16.696" fill="none"/>
    </clipPath>
    <clipPath id="clip-path-2">
      <rect id="Rectangle_4073" data-name="Rectangle 4073" width="14.045" height="14.046" fill="#02b6e2"/>
    </clipPath>
  </defs>
  <g id="Group_10166" data-name="Group 10166" transform="translate(1 1)">
    <g id="Group_10163" data-name="Group 10163" transform="translate(-1 -1)" clip-path="url(#clip-path)">
      <g id="Group_10160" data-name="Group 10160" transform="translate(1.316 1.325)">
        <g id="Group_10159" data-name="Group 10159" transform="translate(0 0)" clip-path="url(#clip-path-2)">
          <path id="Path_9342" data-name="Path 9342" d="M14.045,2.935v7.159a.811.811,0,0,0-.08.3,2.855,2.855,0,0,1-.72,1.41c-.433.458-.891.893-1.334,1.342a2.933,2.933,0,0,1-.724.531,2.7,2.7,0,0,1-1.242.36c-2.2.011-4.4.006-6.6,0a3.672,3.672,0,0,1-.5-.021,3.214,3.214,0,0,1-.923-.265A3.3,3.3,0,0,1,.431,12.4a2.754,2.754,0,0,1-.424-1.36C-.005,8.4,0,5.753,0,3.111a2.787,2.787,0,0,1,.21-1A3.227,3.227,0,0,1,1.293.67,3.314,3.314,0,0,1,2.347.133,5.354,5.354,0,0,0,2.909,0h8.174c.013.037.044.022.069.026A3.513,3.513,0,0,1,12.1.289a3.316,3.316,0,0,1,1.816,2.1,4.785,4.785,0,0,0,.133.549M1.1,7.016h0q0,1.913,0,3.825a1.857,1.857,0,0,0,.1.577,2.153,2.153,0,0,0,.748,1.071,1.95,1.95,0,0,0,1.173.452c1.914.011,3.83.005,5.745.005.3,0,.294,0,.3-.3a16.045,16.045,0,0,1,.027-1.611,2.111,2.111,0,0,1,.8-1.389,2.166,2.166,0,0,1,1.425-.479c.476,0,.951,0,1.427,0,.076,0,.11-.008.11-.1-.021-1.982.034-3.964-.03-5.945a2,2,0,0,0-.513-1.26A2.158,2.158,0,0,0,10.716,1.1c-2.464-.009-4.927,0-7.39-.005a2.226,2.226,0,0,0-1.743.821A1.977,1.977,0,0,0,1.1,3.123c-.015,1.3-.005,2.6-.005,3.894m11.767,3.258c-.519,0-1.024,0-1.53,0a1.047,1.047,0,0,0-.837.418.922.922,0,0,0-.23.573c0,.344,0,.689,0,1.034,0,.185,0,.371,0,.565a2.035,2.035,0,0,0,.856-.5c.434-.439.875-.87,1.307-1.311a1.86,1.86,0,0,0,.43-.782" transform="translate(0 0)" fill="#02b6e2"/>
          <path id="Path_9343" data-name="Path 9343" d="M7.557,4.879c-1.07,0-2.139-.006-3.208,0a.567.567,0,0,1-.561-.427.554.554,0,0,1,.406-.663.482.482,0,0,1,.148-.01h6.429a.554.554,0,0,1,.526.32.508.508,0,0,1-.092.6.52.52,0,0,1-.4.182q-1.625,0-3.249,0" transform="translate(-0.544 -0.545)" fill="#02b6e2"/>
          <path id="Path_9344" data-name="Path 9344" d="M7.548,8.661c-1.065,0-2.13-.007-3.195,0a.569.569,0,0,1-.566-.436.547.547,0,0,1,.4-.652.481.481,0,0,1,.134-.013h6.458a.567.567,0,0,1,.572.549.578.578,0,0,1-.57.551c-1.078-.006-2.157,0-3.236,0" transform="translate(-0.545 -1.091)" fill="#02b6e2"/>
          <path id="Path_9345" data-name="Path 9345" d="M5.934,12.444c-.535,0-1.07-.012-1.6.005a.59.59,0,0,1-.555-.555.582.582,0,0,1,.558-.551c1.069.009,2.138,0,3.207,0a.553.553,0,0,1,.523.323.551.551,0,0,1-.484.774c-.549,0-1.1,0-1.645,0" transform="translate(-0.544 -1.636)" fill="#02b6e2"/>
        </g>
      </g>
    </g>
  </g>
</svg>
