<svg xmlns="http://www.w3.org/2000/svg" xmlns:xlink="http://www.w3.org/1999/xlink" width="14" height="15.221" viewBox="0 0 14 15.221">
  <defs>
    <clipPath id="clip-path">
      <rect id="Rectangle_4057" data-name="Rectangle 4057" width="14" height="15.221" fill="#fff"/>
    </clipPath>
  </defs>
  <g id="Group_9991" data-name="Group 9991" transform="translate(0 0)">
    <g id="Group_9990" data-name="Group 9990" transform="translate(0 0)" clip-path="url(#clip-path)">
      <path id="Path_9195" data-name="Path 9195" d="M.024,8.3c0-2.047,0-4.093-.008-6.14A2.007,2.007,0,0,1,.027,1.59a2.179,2.179,0,0,1,.227-.582A2.214,2.214,0,0,1,1.171.177,1.8,1.8,0,0,1,1.916.008C5.295,0,8.674-.011,12.053.014a1.908,1.908,0,0,1,1.9,1.591A2.622,2.622,0,0,1,14,2.2c0,.772-.005,1.544,0,2.316a1.364,1.364,0,0,1-.216.759,1.174,1.174,0,0,1-.647.486.973.973,0,0,1-.288.049q-.776.008-1.554,0c-.109,0-.164.015-.107.14a.388.388,0,0,1,.011.156q0,3.981,0,7.963a1.471,1.471,0,0,1-.1.669.743.743,0,0,1-.389.309c-.334.149-.591-.031-.853-.19-.516-.313-1.029-.63-1.546-.941a.292.292,0,0,0-.331.005c-.633.384-1.277.75-1.9,1.147a.845.845,0,0,1-.986-.018c-.627-.4-1.273-.772-1.911-1.153a.226.226,0,0,0-.247.005c-.592.358-1.181.721-1.777,1.072a.71.71,0,0,1-1.1-.368.971.971,0,0,1-.027-.356q0-2.975,0-5.949m10.064,5.446c.018.029.037.076.074.053s.021-.079.013-.122c0-.016,0-.032,0-.047q0-5.847,0-11.693c0-.06-.008-.119-.008-.178a1.886,1.886,0,0,1,.2-.74c-2.212,0-4.412,0-6.612,0-.632,0-1.265-.036-1.9.027a.855.855,0,0,0-.627.351,1.279,1.279,0,0,0-.2.83c.011,3.8.007,7.595.007,11.392,0,.047,0,.1,0,.143s.044.06.058.029c.041-.094.137-.073.2-.112.282-.174.565-.348.849-.52a1.639,1.639,0,0,1,.922-.336,1.585,1.585,0,0,1,.789.279c.534.337,1.085.649,1.624.979a.194.194,0,0,0,.227.005c.6-.362,1.194-.734,1.8-1.085a1.219,1.219,0,0,1,1.118-.062c.318.134.594.349.9.513a1.866,1.866,0,0,0,.556.292M11.2,3.356c0,.434.005.867,0,1.3,0,.124.037.145.15.144.439-.007.877,0,1.316,0,.268,0,.318-.049.318-.318,0-.8,0-1.6,0-2.394a1.011,1.011,0,0,0-.34-.818.864.864,0,0,0-1.318.144,1.04,1.04,0,0,0-.13.644c.024.432.007.866.007,1.3" transform="translate(0 0)" fill="#fff"/>
      <path id="Path_9196" data-name="Path 9196" d="M13.215,17.989a.092.092,0,0,1,.087-.069c.008.043.03.1-.013.122s-.056-.024-.074-.053" transform="translate(-3.127 -4.24)" fill="#fff"/>
      <path id="Path_9197" data-name="Path 9197" d="M6.084,9.6c-.66,0-1.321-.005-1.981,0a.528.528,0,0,1-.572-.5.517.517,0,0,1,.559-.531c1.109,0,2.218,0,3.327,0a5.284,5.284,0,0,1,.539,0c.469.049.577.076.669.569.021.113-.073.2-.139.277a.516.516,0,0,1-.406.183c-.666-.007-1.331,0-2,0" transform="translate(-0.835 -2.027)" fill="#fff"/>
      <path id="Path_9198" data-name="Path 9198" d="M6.054,6.048c-.666,0-1.332-.007-2,0a.532.532,0,0,1-.526-.484.5.5,0,0,1,.5-.537q2.03-.007,4.06,0a.507.507,0,0,1,.332.9.476.476,0,0,1-.322.119q-1.023,0-2.046,0" transform="translate(-0.835 -1.189)" fill="#fff"/>
      <path id="Path_9199" data-name="Path 9199" d="M6.065,13.241H4.019a.507.507,0,0,1,0-1.014c1.343,0,2.686-.013,4.029,0,.385,0,.506.124.553.487a.471.471,0,0,1-.457.52c-.692.008-1.385,0-2.078,0" transform="translate(-0.835 -2.892)" fill="#fff"/>
    </g>
  </g>
</svg>
