<svg xmlns="http://www.w3.org/2000/svg" xmlns:xlink="http://www.w3.org/1999/xlink" width="28.545" height="27.985" viewBox="0 0 28.545 27.985">
  <defs>
    <clipPath id="clip-path">
      <rect id="Rectangle_4053" data-name="Rectangle 4053" width="28.545" height="27.985" fill="none"/>
    </clipPath>
  </defs>
  <g id="Group_9980" data-name="Group 9980" transform="translate(0 0)">
    <g id="Group_9979" data-name="Group 9979" transform="translate(0 0)" clip-path="url(#clip-path)">
      <path id="Path_9176" data-name="Path 9176" d="M28.545,16.893c-.1-.013-.138.082-.193.134q-3.444,3.313-6.887,6.626a.333.333,0,0,0-.1.425c.392,1.027.764,2.061,1.157,3.088.075.2.035.265-.158.327-.37.119-.732.257-1.091.406-.185.078-.273.071-.35-.147-.382-1.07-.789-2.131-1.175-3.2a.26.26,0,0,0-.293-.21q-1.227.013-2.452,0c-.185,0-.228.051-.227.23.008,1.058,0,2.117.008,3.177,0,.174-.034.243-.226.235-.408-.016-.818-.017-1.226,0-.208.009-.239-.071-.237-.254.008-1.031,0-2.062.009-3.092,0-.221-.037-.3-.282-.3-.7.018-1.393.011-2.089,0-.168,0-.231.04-.268.218-.221,1.039-.467,2.075-.69,3.114-.037.172-.075.206-.249.158-.41-.11-.827-.2-1.245-.279-.177-.031-.2-.084-.158-.252.211-.91.4-1.824.612-2.734.04-.171.028-.227-.165-.226q-3.442.008-6.884,0c-.167,0-.21.058-.24.217-.194,1.028-.406,2.051-.608,3.077-.03.157-.072.235-.266.185-.412-.1-.832-.176-1.25-.255-.142-.026-.19-.065-.155-.229.19-.9.354-1.8.545-2.693.053-.247.007-.32-.254-.306-.417.024-.836,0-1.254.01-.155,0-.209-.038-.2-.2.01-.418.016-.837,0-1.254-.009-.212.055-.258.261-.257,3.52.007,7.041,0,10.561.01.249,0,.376-.036.419-.321.07-.474.2-.94.306-1.409a2.046,2.046,0,0,1,2.019-1.625c.446,0,.892-.007,1.338,0,.157,0,.2-.042.2-.2-.006-1.82-.008-3.641,0-5.461,0-.235-.125-.2-.261-.2H6.238c-.372,0-.371,0-.373-.388a16.389,16.389,0,0,1,.219-3.38A10.11,10.11,0,0,1,13.906,1.9c.336-.066.675-.121,1.015-.157.147-.016.186-.061.184-.2C15.1,1.094,15.109.648,15.1.2c0-.158.044-.2.2-.2.427.01.855.015,1.282,0,.189-.008.208.069.2.225-.009.436,0,.873,0,1.31,0,.129.018.184.173.2a9.943,9.943,0,0,1,8.57,6.931,10.553,10.553,0,0,1,.493,3.867c-.007.294.129.687-.06.853-.164.145-.548.045-.835.045q-4.027,0-8.053,0c-.219,0-.3.031-.293.277q.019,2.661,0,5.322c0,.224.064.267.274.268a7.629,7.629,0,0,1,1.528.043,1.967,1.967,0,0,1,1.5,1.24c.2.486.373.984.572,1.512.279-.265.543-.516.805-.768q2.869-2.765,5.736-5.532c.154-.149.234-.157.384.006a9.248,9.248,0,0,0,.974.983ZM15.93,11.753c.956,0,1.912,0,2.868,0,.17,0,.222-.038.219-.215a17.477,17.477,0,0,0-.8-5.223,6.145,6.145,0,0,0-1.39-2.5,1.112,1.112,0,0,0-1.773,0A4.954,4.954,0,0,0,14,5.463a15.806,15.806,0,0,0-1.121,6.1c0,.175.072.19.213.189.947,0,1.895,0,2.842,0M12.774,4.02a.2.2,0,0,0-.052,0,8.369,8.369,0,0,0-5.155,7.542c0,.173.069.193.212.192,1.059,0,2.117-.008,3.176,0,.192,0,.23-.064.233-.237a21.387,21.387,0,0,1,.189-2.691A14.913,14.913,0,0,1,12.6,4.443a.929.929,0,0,0,.172-.422m6.277-.042c.042.094.06.143.084.188a12.275,12.275,0,0,1,1.1,3.153,19.457,19.457,0,0,1,.453,4.19c0,.131-.024.25.188.248,1.086-.009,2.171-.007,3.258,0,.154,0,.186-.056.18-.194-.01-.24-.02-.481-.048-.721a8.283,8.283,0,0,0-3.345-5.822,7.38,7.38,0,0,0-1.871-1.04M12.9,22.643c.713,0,1.4,0,2.081,0,.124,0,.126-.071.126-.162,0-.444,0-.889,0-1.333,0-.109-.02-.172-.151-.171-.463.006-.926,0-1.388.007a.334.334,0,0,0-.352.258c-.108.456-.208.914-.318,1.4m6.148,0c-.186-.5-.357-.944-.52-1.394a.391.391,0,0,0-.409-.267c-.39,0-.78,0-1.169,0-.116,0-.166.027-.165.154.007.454,0,.909,0,1.364,0,.1.018.151.135.149.7,0,1.391,0,2.128,0" transform="translate(0 0)" fill="#090909"/>
      <path id="Path_9177" data-name="Path 9177" d="M14.516,11.382c-.947,0-1.894,0-2.841,0-.142,0-.217-.013-.215-.189a15.824,15.824,0,0,1,1.122-6.1,4.925,4.925,0,0,1,1.062-1.648,1.111,1.111,0,0,1,1.771,0,6.132,6.132,0,0,1,1.39,2.5,17.406,17.406,0,0,1,.8,5.223c0,.175-.049.216-.218.215-.956-.009-1.913,0-2.869,0" transform="translate(1.413 0.371)" fill="#e21a22"/>
      <path id="Path_9178" data-name="Path 9178" d="M11.943,3.579A.939.939,0,0,1,11.772,4a14.949,14.949,0,0,0-1.227,4.388,21.568,21.568,0,0,0-.188,2.691c0,.173-.04.238-.233.236-1.058-.01-2.116-.007-3.176,0-.144,0-.213-.019-.212-.193a8.369,8.369,0,0,1,5.155-7.542.341.341,0,0,1,.052,0" transform="translate(0.831 0.441)" fill="#fbfbfa"/>
      <path id="Path_9179" data-name="Path 9179" d="M16.96,3.542a7.392,7.392,0,0,1,1.871,1.039A8.284,8.284,0,0,1,22.177,10.4c.029.24.038.48.049.721.006.138-.027.2-.181.194-1.086-.007-2.171-.009-3.258,0-.21,0-.188-.117-.188-.248a19.475,19.475,0,0,0-.453-4.191,12.267,12.267,0,0,0-1.1-3.152c-.025-.045-.043-.093-.084-.188" transform="translate(2.091 0.437)" fill="#fbfbfa"/>
      <path id="Path_9180" data-name="Path 9180" d="M11.481,20.34c.109-.485.21-.942.317-1.4a.336.336,0,0,1,.353-.259c.463-.009.926,0,1.388-.007.13,0,.151.062.149.172,0,.444,0,.889,0,1.332,0,.092,0,.163-.127.162-.684,0-1.367,0-2.08,0" transform="translate(1.416 2.303)" fill="#fbfbfa"/>
      <path id="Path_9181" data-name="Path 9181" d="M17.2,20.341c-.737,0-1.432,0-2.128,0-.117,0-.136-.049-.135-.149,0-.455.006-.91,0-1.364,0-.127.049-.156.165-.154.39.006.78,0,1.169,0a.391.391,0,0,1,.409.267c.163.45.334.9.52,1.394" transform="translate(1.842 2.303)" fill="#fbfbfa"/>
    </g>
  </g>
</svg>
