<svg xmlns="http://www.w3.org/2000/svg" width="12.626" height="16.913" viewBox="0 0 12.626 16.913">
  <g id="location" transform="translate(-47.83 0.25)">
    <g id="Group_9595" data-name="Group 9595" transform="translate(48.08)">
      <g id="Group_9594" data-name="Group 9594" transform="translate(0)">
        <path id="Path_5520" data-name="Path 5520" d="M54.143,0A6.07,6.07,0,0,0,48.08,6.063,7,7,0,0,0,48.594,8.4a9.779,9.779,0,0,0,.7,1.311l4.157,6.3a.791.791,0,0,0,1.382,0l4.157-6.3a9.737,9.737,0,0,0,.7-1.311,6.993,6.993,0,0,0,.514-2.334A6.07,6.07,0,0,0,54.143,0Zm4.891,8.121A8.959,8.959,0,0,1,58.4,9.315l-4.157,6.3c-.082.124-.108.124-.19,0l-4.157-6.3a8.963,8.963,0,0,1-.639-1.2,6.35,6.35,0,0,1-.459-2.057,5.35,5.35,0,0,1,10.7,0A6.355,6.355,0,0,1,59.035,8.121Z" transform="translate(-48.08)" fill="#e21a22" stroke="#e21a22" stroke-width="0.5"/>
        <path id="Path_5521" data-name="Path 5521" d="M115.29,64.008a3.21,3.21,0,1,0,3.21,3.21A3.214,3.214,0,0,0,115.29,64.008Zm0,5.706a2.5,2.5,0,1,1,2.5-2.5A2.5,2.5,0,0,1,115.29,69.714Z" transform="translate(-109.227 -61.154)" fill="#e21a22" stroke="#e21a22" stroke-width="0.5"/>
      </g>
    </g>
  </g>
</svg>
