<svg xmlns="http://www.w3.org/2000/svg" xmlns:xlink="http://www.w3.org/1999/xlink" width="12.561" height="12.557" viewBox="0 0 12.561 12.557">
  <defs>
    <clipPath id="clip-path">
      <rect id="Rectangle_4077" data-name="Rectangle 4077" width="12.561" height="12.557" fill="#ff683b"/>
    </clipPath>
  </defs>
  <g id="Pending" transform="translate(0 0)">
    <g id="Group_10169" data-name="Group 10169" transform="translate(0 0)" clip-path="url(#clip-path)">
      <path id="Path_9366" data-name="Path 9366" d="M6.746,0a.754.754,0,0,0,.292.045,6.311,6.311,0,0,1,4.52,2.829c.039-.024.02-.06.02-.088,0-.4,0-.809,0-1.214a.491.491,0,1,1,.981,0c0,.47,0,.94,0,1.411a1.566,1.566,0,0,1-1.577,1.576c-.487,0-.973,0-1.46,0a.492.492,0,1,1,.006-.981h1.3a3.622,3.622,0,0,0-.379-.565A5.151,5.151,0,0,0,7.628,1.163a5.125,5.125,0,0,0-4.576.932,5.108,5.108,0,0,0-1.976,3.23A5.092,5.092,0,0,0,1.858,9.18a5.175,5.175,0,0,0,3.467,2.3,4.707,4.707,0,0,0,1.255.079.931.931,0,0,1,.341.012.489.489,0,0,1-.092.962A6.17,6.17,0,0,1,1.87,10.749,6.063,6.063,0,0,1,.1,7.377a4.986,4.986,0,0,1-.071-.546c0-.017,0-.031-.024-.036V5.765a1.435,1.435,0,0,0,.055-.352A6.158,6.158,0,0,1,1.314,2.436,6.2,6.2,0,0,1,5.34.068,1.851,1.851,0,0,0,5.765,0Z" transform="translate(0 0)" fill="#ff683b"/>
      <path id="Path_9367" data-name="Path 9367" d="M9.231,5.5c0,.646,0,1.291,0,1.937a.517.517,0,0,1-.152.386c-.641.642-1.28,1.286-1.925,1.923a.487.487,0,0,1-.825-.195.492.492,0,0,1,.148-.522q.608-.606,1.214-1.213c.162-.162.321-.327.487-.484a.223.223,0,0,0,.073-.181q0-1.8,0-3.6a.491.491,0,0,1,.768-.412.475.475,0,0,1,.214.416q0,.975,0,1.949" transform="translate(-2.46 -1.189)" fill="#ff683b"/>
      <path id="Path_9368" data-name="Path 9368" d="M19.115,12.979a.487.487,0,0,1-.5-.581,4.358,4.358,0,0,1,.145-.553.48.48,0,0,1,.6-.307.486.486,0,0,1,.341.56c-.038.182-.084.363-.139.542a.5.5,0,0,1-.449.339" transform="translate(-7.261 -4.494)" fill="#ff683b"/>
      <path id="Path_9369" data-name="Path 9369" d="M13.939,18.987a.5.5,0,0,1-.492-.37.478.478,0,0,1,.231-.542c.156-.087.315-.169.478-.242a.49.49,0,0,1,.445.874c-.152.086-.311.159-.468.237a.4.4,0,0,1-.194.043" transform="translate(-5.24 -6.94)" fill="#ff683b"/>
      <path id="Path_9370" data-name="Path 9370" d="M17.136,16.514a.465.465,0,0,1-.431-.252.446.446,0,0,1,.016-.5A4.6,4.6,0,0,1,17.1,15.3a.485.485,0,0,1,.656-.036.477.477,0,0,1,.107.636,5.3,5.3,0,0,1-.384.476.429.429,0,0,1-.34.14" transform="translate(-6.491 -5.911)" fill="#ff683b"/>
    </g>
  </g>
</svg>
