<svg xmlns="http://www.w3.org/2000/svg" xmlns:xlink="http://www.w3.org/1999/xlink" width="15.016" height="15.738" viewBox="0 0 15.016 15.738">
  <defs>
    <clipPath id="clip-path">
      <rect id="Rectangle_4211" data-name="Rectangle 4211" width="15.016" height="15.738" fill="#fff"/>
    </clipPath>
  </defs>
  <g id="Report" transform="translate(0 0)">
    <g id="Group_10265" data-name="Group 10265" transform="translate(0 0)" clip-path="url(#clip-path)">
      <path id="Path_9608" data-name="Path 9608" d="M0,7.866Q0,4.729,0,1.592A1.647,1.647,0,0,1,1.024.12,2.021,2.021,0,0,1,1.765,0q4.277,0,8.554,0a1.652,1.652,0,0,1,1.692,1.208,2.763,2.763,0,0,1,.07.754c.006,1.48,0,2.96,0,4.439,0,.14,0,.2.186.19.529-.017,1.061-.027,1.591.006a1.284,1.284,0,0,1,1.1,1.014c.018.239.053.48.053.723,0,1.834.006,3.668,0,5.5a1.864,1.864,0,0,1-.331,1.223,1.74,1.74,0,0,1-1.086.66,1.993,1.993,0,0,1-.365.013c-3.838,0-7.677-.006-11.515.006A1.666,1.666,0,0,1,.064,14.531,1.429,1.429,0,0,1,0,14.139Q0,11,0,7.866m13.866-.043a.4.4,0,0,0-.329-.132c-.383,0-.765,0-1.147,0a.3.3,0,0,0-.235.1c-.1.091-.058.2-.058.305q0,2.312,0,4.624c0,.588,0,1.176,0,1.764,0,.11.025.145.139.143.383-.008.765,0,1.148,0a.547.547,0,0,0,.5-.429,3.023,3.023,0,0,0,.019-.374q0-2.955,0-5.909c.027-.046.013-.074-.038-.087m-2.894.284h0V7.764q0-2.957,0-5.912c0-.542-.182-.74-.749-.741q-4.215-.006-8.432,0c-.063,0-.126,0-.189,0a.552.552,0,0,0-.507.6c.007.073.014.147.014.22q0,5.844,0,11.688c0,.147-.011.3-.015.443a.552.552,0,0,0,.129.367.645.645,0,0,0,.581.2q4.5,0,9,0c.152,0,.171-.048.17-.181q-.006-3.171,0-6.341" transform="translate(0 0)" fill="#fff"/>
      <path id="Path_9609" data-name="Path 9609" d="M19.779,11.227c-.052-.012-.064-.041-.038-.087.051.013.065.041.038.087" transform="translate(-5.875 -3.317)" fill="#fff"/>
      <path id="Path_9610" data-name="Path 9610" d="M5.875,8.918c-.725,0-1.45,0-2.175,0a.555.555,0,0,1-.551-.4.621.621,0,0,1,.161-.581A.535.535,0,0,1,3.6,7.82a1.043,1.043,0,0,1,.187-.01c1.4,0,2.8,0,4.2,0a.614.614,0,0,1,.612.423.554.554,0,0,1-.509.687c-.736.007-1.473,0-2.209,0" transform="translate(-0.932 -2.325)" fill="#fff"/>
      <path id="Path_9611" data-name="Path 9611" d="M5.11,5.267c-.492,0-.983-.009-1.474,0a.615.615,0,0,1-.512-.418.546.546,0,0,1,.26-.589.65.65,0,0,1,.348-.1c.931,0,1.863-.012,2.794.008.474.011.659.248.6.687a.575.575,0,0,1-.5.405c-.508,0-1.017,0-1.525,0" transform="translate(-0.925 -1.241)" fill="#fff"/>
    </g>
  </g>
</svg>
