<svg xmlns="http://www.w3.org/2000/svg" xmlns:xlink="http://www.w3.org/1999/xlink" width="16.929" height="16.264" viewBox="0 0 16.929 16.264">
  <defs>
    <clipPath id="clip-path">
      <rect id="Rectangle_3777" data-name="Rectangle 3777" width="16.929" height="16.264" fill="#e21a22"/>
    </clipPath>
  </defs>
  <g id="Site" transform="translate(0 0)">
    <g id="Group_9600" data-name="Group 9600" transform="translate(0 0)" clip-path="url(#clip-path)">
      <path id="Path_5527" data-name="Path 5527" d="M8.467,5.657q-3.463,0-6.926,0c-.137,0-.176.028-.176.172q.008,3.953,0,7.905c0,.316.119.464.456.456.653-.016,1.307-.012,1.96,0,.457.007.692.217.737.721a.67.67,0,0,1-.594.624c-.732.01-1.464,0-2.2.011a1.681,1.681,0,0,1-1.534-.888,1.324,1.324,0,0,1-.182-.847,1.784,1.784,0,0,0-.006-.185C.008,9.713.013,5.806,0,1.9A1.873,1.873,0,0,1,.358.672,1.6,1.6,0,0,1,1.546.021C2-.011,2.444,0,2.894,0Q8.966,0,15.039,0a2.056,2.056,0,0,1,.624.082c.079.025.128-.061.2-.007a2.348,2.348,0,0,1,.937.981,2.551,2.551,0,0,1,.127.931q0,5.862,0,11.723a1.74,1.74,0,0,1-.642,1.446,1.546,1.546,0,0,1-.909.376c-.3.012-.605.005-.908-.01-.165-.009-.4-.265-.461-.475a.7.7,0,0,1,.682-.867c.151.015.3,0,.456,0a.37.37,0,0,0,.419-.42q0-3.978,0-7.956c0-.134-.041-.152-.161-.152q-3.471,0-6.943,0m0-1.368q3.471,0,6.943,0c.121,0,.161-.021.159-.153-.008-.771-.016-1.543,0-2.314a.424.424,0,0,0-.48-.461q-6.419.01-12.838,0c-.2,0-.394.007-.59.005a.249.249,0,0,0-.177.071c-.14.119-.123.267-.121.43q.015,1.123,0,2.247c0,.146.041.17.177.17q3.463-.006,6.926,0" transform="translate(0 0)" fill="#e21a22"/>
      <path id="Path_5528" data-name="Path 5528" d="M9.486,16.415a1.51,1.51,0,0,1,.712.225c1.24.509,2.475,1.029,3.711,1.547.472.2.94.406,1.418.592.157.061.3.137.457.205a.686.686,0,0,1,.18,1.086,1.074,1.074,0,0,1-.707.3,2.337,2.337,0,0,0-1.056.366c-.1.065-.009.088.016.114.22.225.444.447.667.67.39.39.774.786,1.172,1.168a.682.682,0,1,1-1.02.9c-.592-.577-1.175-1.165-1.754-1.755-.111-.114-.156-.085-.206.037a3.48,3.48,0,0,0-.307,1.078.872.872,0,0,1-.746.824.655.655,0,0,1-.642-.427q-.267-.623-.531-1.248-.412-.978-.822-1.958-.419-1-.835-2.008c-.109-.262-.221-.522-.328-.786a.7.7,0,0,1,.272-.868.585.585,0,0,1,.35-.067m2.435,4.729a3.923,3.923,0,0,1,1.628-1.626c-.232-.124-.468-.182-.688-.282-.64-.291-1.294-.555-1.944-.826-.037-.015-.078-.069-.121-.028s.015.09.031.129c.263.608.5,1.225.778,1.829a8.609,8.609,0,0,1,.315.8" transform="translate(-4.064 -7.571)" fill="#e21a22"/>
      <path id="Path_5529" data-name="Path 5529" d="M7.357,5.339c-.714,0-1.429-.01-2.143,0a.643.643,0,0,1-.6-.568A.6.6,0,0,1,5.2,4.125q2.143-.006,4.285,0a.637.637,0,0,1,.609.462.61.61,0,0,1-.429.731.482.482,0,0,1-.179.02q-1.062,0-2.126,0" transform="translate(-2.13 -1.901)" fill="#e21a22"/>
      <path id="Path_5530" data-name="Path 5530" d="M21.563,5.345a.655.655,0,0,1-.637-.639.647.647,0,0,1,.615-.644.618.618,0,0,1,.668.581.618.618,0,0,1-.647.7" transform="translate(-9.654 -1.874)" fill="#e21a22"/>
      <path id="Path_5531" data-name="Path 5531" d="M25.662,4.7a.622.622,0,0,1-.676.641.67.67,0,0,1-.605-.639.662.662,0,0,1,.647-.65.617.617,0,0,1,.635.647" transform="translate(-11.248 -1.871)" fill="#e21a22"/>
      <path id="Path_5532" data-name="Path 5532" d="M18.112,5.345a.637.637,0,0,1-.642-.678.629.629,0,0,1,.628-.6.65.65,0,0,1,.661.651.657.657,0,0,1-.647.631" transform="translate(-8.059 -1.874)" fill="#e21a22"/>
    </g>
  </g>
</svg>
