<svg xmlns="http://www.w3.org/2000/svg" xmlns:xlink="http://www.w3.org/1999/xlink" width="30.134" height="28.482" viewBox="0 0 30.134 28.482">
  <defs>
    <clipPath id="clip-path">
      <rect id="Rectangle_4047" data-name="Rectangle 4047" width="30.134" height="28.482" transform="translate(-2 -2)" fill="none"/>
    </clipPath>
  </defs>
  <g id="Group_9968" data-name="Group 9968" transform="translate(2 2)">
    <g id="Group_9967" data-name="Group 9967" clip-path="url(#clip-path)">
      <path id="Path_9155" data-name="Path 9155" d="M26.134,10.969c-.28.271-.556.545-.84.811-.091.085-.071.184-.071.282q0,2.871,0,5.741a.5.5,0,0,1-.166.4c-.309.293-.6.6-.907.9a.446.446,0,0,0-.121.288,1.486,1.486,0,0,0,.64,1.579.574.574,0,0,1,.242.569,3.546,3.546,0,0,1-.046,1.033c-.119.29-.454.492-.694.733-.151.15-.311.292-.448.453-.109.127-.171.1-.276-.005-.657-.666-1.323-1.324-1.98-1.989a.427.427,0,0,0-.334-.142c-1.633,0-3.266.011-4.9,0-.285,0-.256.213-.347.353s-.046.238.073.344c.2.175.373.373.564.554.091.085.083.138,0,.223q-.656.644-1.3,1.3a.321.321,0,0,1-.251.095c-.408,0-.816-.009-1.224,0a.386.386,0,0,1-.3-.155c-.847-.848-1.7-1.693-2.541-2.546a.508.508,0,0,0-.4-.164c-1.471.006-2.943,0-4.414.007a.535.535,0,0,1-.423-.17Q2.923,18.7.166,15.95a.51.51,0,0,1-.165-.4q.008-3.636,0-7.272c0-.213.053-.267.265-.263.688.015,1.378.011,2.066,0,.178,0,.254.024.25.23-.01.565,0,.565-.573.565-.358,0-.715.006-1.072,0-.137,0-.168.041-.168.172q.006,3.164,0,6.328a.316.316,0,0,0,.108.242q2.581,2.579,5.158,5.162a.42.42,0,0,0,.343.114c1.471,0,2.943,0,4.414,0a.56.56,0,0,1,.446.18c.836.848,1.683,1.685,2.521,2.53a.557.557,0,0,0,.35.159,1.225,1.225,0,0,0,1.23-.512c.132-.164.19-.237.009-.407-.46-.431-.451-.441-.208-1.022.108-.258.223-.512.319-.774a.2.2,0,0,1,.222-.152q2.908,0,5.818,0a.37.37,0,0,1,.278.146c.552.554,1.111,1.1,1.656,1.663.128.132.19.114.316,0a.936.936,0,0,0,.4-.866.531.531,0,0,0-.191-.413,1.761,1.761,0,0,1-.73-1.707,1.429,1.429,0,0,1,.55-1.269,1.688,1.688,0,0,0,.688-1.616c-.051-1.674-.015-3.351-.02-5.026a.4.4,0,0,1,.147-.355,1.629,1.629,0,0,0,.145-.143c.677-.677.675-.677.631-1.634a.331.331,0,0,0-.116-.239c-.231-.226-.466-.449-.684-.687-.115-.126-.181-.114-.3,0-1.066,1.075-2.141,2.142-3.206,3.217a.584.584,0,0,1-.467.192c-.552-.012-1.1-.008-1.658,0a.417.417,0,0,1-.331-.14c-.976-1-1.958-1.987-2.933-2.984a.448.448,0,0,0-.354-.151c-.791.006-1.582,0-2.373.007-.177,0-.23-.047-.229-.227,0-.568,0-.568.575-.568.774,0,1.548,0,2.322,0A.477.477,0,0,1,16,8.181c.964.984,1.935,1.961,2.9,2.946a.488.488,0,0,0,.4.172c.357-.013.715-.011,1.072,0a.44.44,0,0,0,.355-.151q1.746-1.755,3.5-3.5c.066-.066.118-.146.226-.28l1.69,1.768Z" fill="#0d0d0d" stroke="#000" stroke-width="0.6"/>
      <path id="Path_9156" data-name="Path 9156" d="M7.649,15.644A49.774,49.774,0,0,1,3.055,7.529a6.3,6.3,0,0,1-.6-2.5A5.2,5.2,0,0,1,12.738,4.08a4.894,4.894,0,0,1-.256,2.868,30.359,30.359,0,0,1-2.419,4.885c-.726,1.246-1.5,2.459-2.3,3.657-.027.041-.056.08-.109.154m0-1.39c.1-.151.166-.256.233-.362a44.413,44.413,0,0,0,3.629-6.577,5.127,5.127,0,0,0,.5-2.91A4.46,4.46,0,0,0,6.623.887,4.371,4.371,0,0,0,3.546,6.673a45.236,45.236,0,0,0,4.105,7.581" fill="#e21a22" stroke="#e21a22" stroke-linecap="round" stroke-linejoin="bevel" stroke-width="0.5"/>
      <path id="Path_9157" data-name="Path 9157" d="M10.126,5.19A2.474,2.474,0,0,1,5.179,5.2a2.474,2.474,0,1,1,4.947-.014M7.667,3.5a1.67,1.67,0,0,0-1.7,1.659A1.69,1.69,0,1,0,7.667,3.5" fill="#0d0d0d"/>
      <path id="Path_9158" data-name="Path 9158" d="M7.405,9.825c0,.4,0,.4-.394.4-.375,0-.375,0-.375-.368,0-.415,0-.415.406-.415.363,0,.363,0,.363.382" fill="#0d0d0d"/>
      <path id="Path_9159" data-name="Path 9159" d="M8.312,9.443c.369,0,.369,0,.369.478,0,.305,0,.305-.465.305-.3,0-.3,0-.3-.49,0-.293,0-.293.4-.293" fill="#0d0d0d"/>
      <path id="Path_9160" data-name="Path 9160" d="M7.667,3.5A1.677,1.677,0,0,1,9.348,5.208a1.69,1.69,0,1,1-3.379-.046A1.67,1.67,0,0,1,7.667,3.5" fill="#fcfcfc"/>
    </g>
  </g>
</svg>
