<svg xmlns="http://www.w3.org/2000/svg" xmlns:xlink="http://www.w3.org/1999/xlink" width="27.389" height="27.369" viewBox="0 0 27.389 27.369">
  <defs>
    <clipPath id="clip-path">
      <rect id="Rectangle_4050" data-name="Rectangle 4050" width="27.389" height="27.369" fill="none"/>
    </clipPath>
  </defs>
  <g id="Group_9974" data-name="Group 9974" transform="translate(0 0.001)">
    <g id="Group_9973" data-name="Group 9973" transform="translate(0 -0.001)" clip-path="url(#clip-path)">
      <path id="Path_9169" data-name="Path 9169" d="M13.057,20.445c-.461-.154-.9-.3-1.337-.443a1.5,1.5,0,0,1-.8-.469c-.125-.164-.208-.117-.329.01-.33.346-.681.673-1.011,1.019a1.053,1.053,0,0,1-1.194.284C7.647,20.6,6.9,20.364,6.169,20.1a2.71,2.71,0,0,0-.98-.162c-.723.012-1.447,0-2.169.006A1.3,1.3,0,0,1,2.4,19.8c-.6-.3-1.2-.6-1.794-.9a.982.982,0,0,1-.483-1.4c.3-.62.615-1.234.92-1.852a1.108,1.108,0,0,1,.673-.578q1.385-.459,2.769-.921a1.032,1.032,0,0,1,1.167.277c.169.178.348.344.517.521a.255.255,0,0,0,.234.109c.145-.025.395.076.418-.052a1.284,1.284,0,0,0-.042-.807c-.246-.5-.487-1-.748-1.5a1,1,0,0,1,1.181-1.5c1.237.319,2.477.617,3.714.928a.986.986,0,1,1-.481,1.906l-1.444-.359a.367.367,0,0,0-.229-.018c.057.812.024,1.619.023,2.426a.946.946,0,0,1-.941.927c-.672.007-1.345,0-2.017,0a1,1,0,0,1-.824-.451.65.65,0,0,0-.91-.216,4.085,4.085,0,0,1-.948.316,1.032,1.032,0,0,0-.787.739c-.053.132-.027.169.083.227a2.316,2.316,0,0,0,1.349.367,8.623,8.623,0,0,1,4.392.716.462.462,0,0,0,.6-.142c.391-.427.812-.829,1.226-1.235a.932.932,0,0,1,1.451,0,3.626,3.626,0,0,0,1.941,1.158c.5.126.983.316,1.471.484a.987.987,0,0,1,.516,1.622q-.9,1.216-1.812,2.418c-.12.159-.216.253.094.313.516.1,1.023.251,1.531.386a.41.41,0,0,0,.391-.083c1.046-.792,2.109-1.562,3.144-2.368a1.374,1.374,0,0,1,1.3-.266c.969.261,1.945.484,2.915.738a.293.293,0,0,0,.343-.091c.187-.2.38-.4.584-.582.124-.112.107-.179,0-.286-.359-.346-.711-.7-1.06-1.058a.983.983,0,0,1-.206-1.275c.277-.563.57-1.12.838-1.688a1.354,1.354,0,0,1,.74-.726,1.805,1.805,0,0,0,.3-.151c.18-.117.563-.169.52-.328a1.191,1.191,0,0,0-.558-.86c-1.011-.492-2.015-1-3.02-1.506a.864.864,0,0,0-.409-.087c-.794,0-1.589,0-2.383,0a1.263,1.263,0,0,1-.587-.133c-.606-.306-1.215-.606-1.821-.913a.988.988,0,1,1,.882-1.763.116.116,0,0,1,.027.014,5.185,5.185,0,0,0,3.614.836,3.138,3.138,0,0,1,1.888.436c1,.538,2.024,1.028,3.042,1.527a1.433,1.433,0,0,1,.694.694c.276.576.572,1.142.852,1.716a.989.989,0,0,1-.473,1.432,5.833,5.833,0,0,1-.817.4,1.9,1.9,0,0,0-1.2,1.223.277.277,0,0,0,.07.365c.419.4.827.814,1.234,1.228a.973.973,0,0,1,0,1.5c-.615.623-1.239,1.239-1.857,1.859a1.028,1.028,0,0,1-1.06.279c-1.039-.268-2.084-.517-3.124-.783a.463.463,0,0,0-.446.087c-1.045.794-2.106,1.568-3.144,2.369a1.334,1.334,0,0,1-1.249.259c-1.205-.316-2.417-.61-3.624-.914a.982.982,0,0,1-.585-1.592c.645-.876,1.3-1.742,1.956-2.614.036-.047.068-.1.124-.175" transform="translate(0 1.572)" fill="#080808"/>
      <path id="Path_9170" data-name="Path 9170" d="M13.82,2.938h7.951a1.282,1.282,0,0,1,.423.038A.978.978,0,0,1,22.7,4.487q-.688,1.062-1.405,2.1a.377.377,0,0,0-.008.507c.471.675.914,1.368,1.376,2.049a.991.991,0,0,1,.091,1.115,1,1,0,0,1-.97.5c-2.78-.007-5.559,0-8.338-.013-.307,0-.353.088-.352.368.013,2.158.009,4.316.007,6.474a.983.983,0,0,1-.823.984,1,1,0,0,1-1.095-.681,1.309,1.309,0,0,1-.037-.423q0-6.765,0-13.529a.493.493,0,0,0-.217-.449A1.922,1.922,0,0,1,10.47.909a1.957,1.957,0,0,1,3.46,1.8c-.027.065-.06.126-.111.23m6.246,1.956c-2.3,0-4.539,0-6.78-.006-.224,0-.184.124-.184.249,0,1.13.007,2.262-.007,3.391,0,.229.053.283.282.282,2.149-.009,4.3,0,6.446-.007.065,0,.14.031.212-.045-.285-.428-.568-.86-.858-1.285a1.017,1.017,0,0,1,0-1.247c.29-.426.572-.857.888-1.332" transform="translate(1.571 0.001)" fill="#e21a22"/>
      <path id="Path_9171" data-name="Path 9171" d="M19.673,4.24c-.316.476-.6.906-.888,1.332a1.017,1.017,0,0,0,0,1.247c.29.425.573.857.858,1.285-.073.076-.148.045-.212.045-2.149,0-4.3,0-6.446.007-.229,0-.284-.053-.282-.282.014-1.129.006-2.261.007-3.391,0-.126-.04-.249.184-.249,2.241.009,4.481.006,6.78.006" transform="translate(1.963 0.655)" fill="#fefefe"/>
    </g>
  </g>
</svg>
