<svg xmlns="http://www.w3.org/2000/svg" xmlns:xlink="http://www.w3.org/1999/xlink" width="16.912" height="16.919" viewBox="0 0 16.912 16.919">
  <defs>
    <clipPath id="clip-path">
      <rect id="Rectangle_4212" data-name="Rectangle 4212" width="16.912" height="16.919" transform="translate(-1 -1)" fill="#fff"/>
    </clipPath>
  </defs>
  <g id="Timesheet" transform="translate(1 1)">
    <g id="Group_10267" data-name="Group 10267" transform="translate(0 0)" clip-path="url(#clip-path)">
      <path id="Path_9612" data-name="Path 9612" d="M14.912,6.961c-.046.016-.034.064-.05.1a.593.593,0,0,1-.648.333.581.581,0,0,1-.467-.571c0-1.082,0-2.165,0-3.247a1.162,1.162,0,0,0-.883-1.2,4.306,4.306,0,0,0-.985-.044c-.075,0-.053.054-.054.092,0,.165,0,.33,0,.495a.582.582,0,0,1-1.164,0c0-.165,0-.33,0-.495,0-.067-.014-.092-.087-.091q-1.238,0-2.475,0c-.087,0-.091.037-.091.1,0,.165,0,.33,0,.495a.582.582,0,0,1-1.164-.005c0-.17,0-.34,0-.509,0-.062-.016-.083-.081-.083q-1.23,0-2.461,0c-.064,0-.091.017-.081.081a.529.529,0,0,1,0,.059c0,.768-.15,1.028-.586,1.027s-.577-.263-.579-1.019c0-.029,0-.059,0-.088S3.042,2.329,3,2.329a4.052,4.052,0,0,0-.956.047,1.164,1.164,0,0,0-.878,1.215q0,3.437,0,6.873c0,.68,0,1.359,0,2.038a1.191,1.191,0,0,0,.465,1,1.246,1.246,0,0,0,.789.242H6.775a.583.583,0,0,1,.5.9.538.538,0,0,1-.472.267c-1.543,0-3.087.022-4.631-.009A2.28,2.28,0,0,1,.062,13.124,2.313,2.313,0,0,1,0,12.577Q0,8.04,0,3.5a2.323,2.323,0,0,1,2.344-2.34c.209,0,.417,0,.626,0,.07,0,.092-.02.088-.089-.005-.112.007-.225,0-.335A.661.661,0,0,1,3.5,0h.291a.66.66,0,0,1,.438.743c-.009.1.005.2,0,.305s.022.12.118.12q1.194-.005,2.388,0c.1,0,.126-.024.118-.12s.007-.2,0-.305A.66.66,0,0,1,7.282,0h.291a.66.66,0,0,1,.438.743c-.009.1.005.2,0,.305s.023.12.118.12q1.21-.005,2.418,0c.095,0,.126-.024.118-.12s.007-.2,0-.305A.66.66,0,0,1,11.1,0h.291a.658.658,0,0,1,.438.74c-.009.091.007.185,0,.275-.013.116.016.16.144.153.222-.012.446-.005.668,0a2.34,2.34,0,0,1,2.133,1.518c.063.17.083.351.143.52Z" transform="translate(0 0)" fill="#fff"/>
      <path id="Path_9613" data-name="Path 9613" d="M17.9,14.786a1.432,1.432,0,0,0-.088.385,3.523,3.523,0,0,1-6.58.783,3.4,3.4,0,0,1,.406-3.787,3.293,3.293,0,0,1,2.266-1.28,3.5,3.5,0,0,1,3.7,2.079,3.179,3.179,0,0,1,.264.96c0,.026-.01.06.03.072Zm-3.523,1.951a2.358,2.358,0,1,0-2.36-2.361,2.375,2.375,0,0,0,2.36,2.361" transform="translate(-2.983 -2.991)" fill="#fff"/>
      <path id="Path_9615" data-name="Path 9615" d="M14.914,14.44c0-.2,0-.4,0-.6a.582.582,0,0,1,1.164,0c0,.179,0,.359,0,.538,0,.064.017.087.081.081s.126,0,.189,0a.582.582,0,0,1,0,1.164q-.429,0-.858,0a.573.573,0,0,1-.572-.572c0-.2,0-.407,0-.611" transform="translate(-4.108 -3.654)" fill="#fff"/>
    </g>
  </g>
</svg>
