<svg xmlns="http://www.w3.org/2000/svg" width="16.599" height="18.97" viewBox="0 0 16.599 18.97">
  <g id="xls" transform="translate(-32)">
    <path id="Path_9245" data-name="Path 9245" d="M97.186,0A1.189,1.189,0,0,0,96,1.186v16.6a1.189,1.189,0,0,0,1.186,1.186h11.856a1.189,1.189,0,0,0,1.186-1.186V4.742L105.485,0Z" transform="translate(-61.629)" fill="#e2e5e7"/>
    <path id="Path_9246" data-name="Path 9246" d="M353.186,4.742h3.557L352,0V3.557A1.189,1.189,0,0,0,353.186,4.742Z" transform="translate(-308.144)" fill="#b0b7bd"/>
    <path id="Path_9247" data-name="Path 9247" d="M387.557,131.557,384,128h3.557Z" transform="translate(-338.958 -123.258)" fill="#cad1d8"/>
    <path id="Path_9248" data-name="Path 9248" d="M46.227,246.521a.6.6,0,0,1-.593.593H32.593a.6.6,0,0,1-.593-.593v-5.928a.6.6,0,0,1,.593-.593H45.634a.6.6,0,0,1,.593.593Z" transform="translate(0 -231.108)" fill="#84bd5a"/>
    <path id="Path_9249" data-name="Path 9249" d="M106.675,292.7l.825-1.033c.247-.323.726.09.455.4-.284.337-.583.7-.867,1.076l.967,1.2a.311.311,0,1,1-.516.346l-.873-1.119-.858,1.143c-.242.346-.778-.043-.507-.365l.953-1.209c-.3-.375-.588-.739-.877-1.076a.307.307,0,1,1,.474-.388Zm1.965-.854a.3.3,0,0,1,.3-.289.289.289,0,0,1,.28.289v2.375h1.289a.313.313,0,1,1,0,.621h-1.569a.286.286,0,0,1-.3-.289v-2.707Zm2.767.427c.109-.92,1.5-1.085,2.152-.583a.277.277,0,1,1-.3.464c-.351-.222-1.147-.327-1.247.165-.128.778,1.934.333,1.9,1.593-.033,1.2-1.777,1.232-2.432.692a.35.35,0,0,1-.066-.465.28.28,0,0,1,.422-.033c.388.265,1.389.464,1.459-.209C113.231,293.194,111.259,293.615,111.406,292.269Z" transform="translate(-70.513 -280.611)" fill="#fff"/>
    <path id="Path_9250" data-name="Path 9250" d="M107.263,416.593H96v.593h11.263a.6.6,0,0,0,.593-.593V416A.6.6,0,0,1,107.263,416.593Z" transform="translate(-61.629 -400.587)" fill="#cad1d8"/>
  </g>
</svg>
