<svg xmlns="http://www.w3.org/2000/svg" xmlns:xlink="http://www.w3.org/1999/xlink" width="30.595" height="24.494" viewBox="0 0 30.595 24.494">
  <defs>
    <clipPath id="clip-path">
      <rect id="Rectangle_4049" data-name="Rectangle 4049" width="30.595" height="24.494" transform="translate(0 0)" fill="none"/>
    </clipPath>
  </defs>
  <g id="Group_9972" data-name="Group 9972" transform="translate(0 0)">
    <g id="Group_9971" data-name="Group 9971" clip-path="url(#clip-path)">
      <path id="Path_9165" data-name="Path 9165" d="M0,21.986a8.474,8.474,0,0,0,.474-1.48Q2.062,15.121,3.635,9.731A2.035,2.035,0,0,1,5.726,8.163c1.165-.008,2.33,0,3.5,0,.365,0,.374,0,.253-.362A6,6,0,0,1,12.593.63,6.138,6.138,0,0,1,21.35,5.135,5.736,5.736,0,0,1,21.1,7.894c-.079.235-.023.274.21.272,1.165-.011,2.331-.007,3.5-.005A2.079,2.079,0,0,1,27,9.8q1.752,5.99,3.5,11.981a2.044,2.044,0,0,1-2.035,2.715q-13.147,0-26.3,0a2.078,2.078,0,0,1-2.1-1.524C.051,22.93.047,22.893,0,22.883Zm15.278.459v-.008q6.469,0,12.939.006c.259,0,.315-.04.238-.3q-1.712-5.845-3.4-11.7a.274.274,0,0,0-.323-.239q-2.121.013-4.243,0a.337.337,0,0,0-.361.252,72.644,72.644,0,0,1-3.907,7.355,1.021,1.021,0,0,1-1.836-.012,71.992,71.992,0,0,1-3.913-7.381.3.3,0,0,0-.328-.211c-1.415.007-2.829.009-4.244,0a.276.276,0,0,0-.321.245Q3.866,16.282,2.149,22.112c-.1.332-.1.333.249.333h12.88m0-7.168c.052-.041.072-.05.081-.065a55.213,55.213,0,0,0,3.429-6.887,6.734,6.734,0,0,0,.575-2.053A4.069,4.069,0,0,0,14.7,2.091a4.023,4.023,0,0,0-3.259,5.16,49.842,49.842,0,0,0,3.838,8.026" fill="#080808"/>
      <path id="Path_9166" data-name="Path 9166" d="M15.277,15.277a49.967,49.967,0,0,1-3.838-8.026A4.023,4.023,0,0,1,14.7,2.091a4.07,4.07,0,0,1,4.665,4.181,6.773,6.773,0,0,1-.576,2.053,55.213,55.213,0,0,1-3.429,6.887c-.008.015-.028.023-.081.065m2.065-9.148A2.039,2.039,0,1,0,15.3,8.175a2.052,2.052,0,0,0,2.043-2.046" fill="#fdfdfd"/>
      <path id="Path_9167" data-name="Path 9167" d="M19.208,7.071a2.972,2.972,0,1,1-2.966-3,2.983,2.983,0,0,1,2.966,3M16.254,5.6a1.464,1.464,0,0,0-1.5,1.467,1.482,1.482,0,0,0,2.964-.009A1.463,1.463,0,0,0,16.254,5.6" transform="translate(-0.934 -0.939)" fill="#e21a22"/>
      <path id="Path_9168" data-name="Path 9168" d="M15.786,5.121A1.463,1.463,0,0,1,17.25,6.579a1.482,1.482,0,0,1-2.964.009,1.464,1.464,0,0,1,1.5-1.467" transform="translate(-0.465 -0.459)" fill="#e21a22"/>
    </g>
  </g>
</svg>
